<?xml version="1.0" encoding="UTF-8"?>
<!-- Generator: visioncortex VTracer 0.6.12 -->
<svg version="1.1" xmlns="http://www.w3.org/2000/svg" width="108" height="96">
<path d="M0 0 C1.37 -0.087 2.742 -0.142 4.115 -0.171 C4.846 -0.195 5.577 -0.219 6.331 -0.243 C7.88 -0.282 9.429 -0.306 10.979 -0.317 C13.334 -0.351 15.671 -0.48 18.023 -0.613 C22.55 -0.743 26.294 -0.525 30.665 0.774 C34.505 4.617 36.5 8.84 38.665 13.774 C39.494 15.187 40.345 16.588 41.232 17.965 C41.89 19.078 42.549 20.19 43.228 21.336 C43.582 21.912 43.935 22.488 44.3 23.081 C45.725 25.514 46.706 27.189 46.505 30.051 C45.665 31.774 45.665 31.774 43.665 33.774 C43.533 34.346 43.4 34.919 43.263 35.508 C42.422 38.696 40.79 41.201 39.103 44.024 C38.462 45.102 37.821 46.179 37.161 47.29 C36.915 47.699 36.915 47.699 35.665 49.774 C37.638 48.938 37.638 48.938 39.665 47.774 C39.81 46.908 39.954 46.041 40.103 45.149 C40.843 40.705 42.823 37.263 45.665 33.774 C46.325 33.774 46.985 33.774 47.665 33.774 C47.696 33.361 47.696 33.361 47.853 31.274 C48.877 26.863 50.801 23.29 53.665 19.774 C54.325 19.774 54.985 19.774 55.665 19.774 C55.995 19.114 56.325 18.454 56.665 17.774 C57.985 17.774 59.305 17.774 60.665 17.774 C61.729 19.49 62.766 21.222 63.79 22.961 C64.08 23.443 64.08 23.443 65.548 25.879 C66.665 28.774 66.665 28.774 65.845 31.637 C65.456 32.342 65.066 33.047 64.665 33.774 C64.005 33.774 63.345 33.774 62.665 33.774 C62.634 34.186 62.634 34.186 62.478 36.274 C61.454 40.685 59.53 44.258 56.665 47.774 C56.005 47.774 55.345 47.774 54.665 47.774 C54.553 48.5 54.441 49.225 54.325 49.973 C53.636 52.9 52.61 54.997 51.103 57.586 C50.648 58.377 50.193 59.167 49.724 59.981 C49.375 60.573 49.025 61.164 48.665 61.774 C48.005 61.774 47.345 61.774 46.665 61.774 C46.335 63.754 46.005 65.734 45.665 67.774 C42.164 68.941 39.353 68.907 35.665 68.899 C34.428 68.902 33.19 68.904 31.915 68.907 C28.665 68.774 28.665 68.774 25.665 67.774 C24.13 65.585 22.792 63.464 21.478 61.149 C21.294 60.847 21.294 60.847 20.363 59.317 C17.882 55 17.267 51.86 17.665 46.774 C17.005 46.774 16.345 46.774 15.665 46.774 C15.63 47.183 15.63 47.183 15.45 49.25 C14.444 53.766 12.438 57.194 10.103 61.149 C9.678 61.885 9.253 62.621 8.816 63.379 C7.774 65.182 6.721 66.979 5.665 68.774 C-11.46 70.3 -11.46 70.3 -15.897 66.688 C-17.843 63.371 -18.982 60.255 -19.87 56.528 C-20.335 54.774 -20.335 54.774 -21.647 53.461 C-25.21 49.899 -27.129 45.596 -28.335 40.774 C-29.312 39.752 -30.315 38.754 -31.335 37.774 C-33.085 35.336 -33.085 35.336 -34.335 32.774 C-33.913 30.614 -33.913 30.614 -33.335 28.774 C-27.86 28.189 -22.794 27.917 -17.335 28.774 C-14.056 31.523 -12.932 34.875 -11.335 38.774 C-10.071 40.999 -8.779 43.207 -7.46 45.399 C-6.417 47.19 -5.376 48.982 -4.335 50.774 C-3.933 50.234 -3.53 49.694 -3.116 49.137 C-1.822 47.421 -0.457 45.757 0.947 44.129 C5.629 37.444 5.629 37.444 5.665 32.774 C3.085 25.253 -1.628 18.601 -6.144 12.117 C-7.335 9.774 -7.335 9.774 -7.209 7.778 C-6.921 7.117 -6.632 6.455 -6.335 5.774 C-6.154 5.33 -6.154 5.33 -5.238 3.083 C-3.335 0.774 -3.335 0.774 0 0 Z M-6.335 7.774 C-5.335 9.774 -5.335 9.774 -5.335 9.774 Z M11.665 12.774 C11.665 13.104 11.665 13.434 11.665 13.774 C14.965 13.774 18.265 13.774 21.665 13.774 C21.665 13.444 21.665 13.114 21.665 12.774 C18.365 12.774 15.065 12.774 11.665 12.774 Z M14.665 14.774 C15.159 15.669 15.653 16.563 16.161 17.485 C19.951 24.561 22.798 30.541 22.665 38.774 C24.358 37.124 25.822 35.56 27.228 33.649 C28.665 31.774 28.665 31.774 30.665 30.774 C30.005 29.124 29.345 27.474 28.665 25.774 C28.005 25.774 27.345 25.774 26.665 25.774 C24.685 22.144 22.705 18.514 20.665 14.774 C18.685 14.774 16.705 14.774 14.665 14.774 Z M-17.335 31.774 C-16.335 33.774 -16.335 33.774 -16.335 33.774 Z M24.665 37.774 C25.665 39.774 25.665 39.774 25.665 39.774 Z M21.665 38.774 C20.103 41.149 20.103 41.149 18.665 43.774 C18.995 44.434 19.325 45.094 19.665 45.774 C21.228 43.399 21.228 43.399 22.665 40.774 C22.335 40.114 22.005 39.454 21.665 38.774 Z M-9.335 45.774 C-8.335 47.774 -8.335 47.774 -8.335 47.774 Z M32.665 49.774 C33.665 51.774 33.665 51.774 33.665 51.774 Z " fill="#1F2020" transform="translate(38.334716796875,22.22607421875)"/>
<path d="M0 0 C48.98 -4.044 48.98 -4.044 57.916 2.259 C63.764 8.365 66.458 15.791 68 24 C68.212 25.069 68.423 26.138 68.641 27.24 C69 30 69 30 68 32 C67.938 32.299 67.938 32.299 67.625 33.812 C66.803 36.688 65.885 38.66 64 41 C60.812 41.312 60.812 41.312 58 41 C55.765 37.252 54.054 34.218 53 30 C52.505 29.546 52.01 29.093 51.5 28.625 C49.361 26.307 49.34 24.064 49 21 C48.01 20.67 47.02 20.34 46 20 C45.34 18.68 44.68 17.36 44 16 C32.78 16 21.56 16 10 16 C5 26 5 26 6 30 C6.495 30.454 6.99 30.907 7.5 31.375 C9.639 33.693 9.66 35.936 10 39 C10.495 39.165 10.495 39.165 13 40 C13.33 41.98 13.66 43.96 14 46 C14.495 46.165 14.495 46.165 17 47 C17.975 49.999 18.317 52.15 17.199 55.145 C15.961 57.382 14.797 59.177 13 61 C9.188 62 9.188 62 6 62 C3.765 58.252 2.054 55.218 1 51 C0.567 50.567 0.134 50.134 -0.312 49.688 C-3.875 46.125 -5.794 41.822 -7 37 C-7.495 36.505 -7.99 36.01 -8.5 35.5 C-10.301 33.699 -10.393 32.429 -11 30 C-11.536 29.505 -12.072 29.01 -12.625 28.5 C-13.079 28.005 -13.533 27.51 -14 27 C-13.534 23.445 -11.819 20.655 -10.059 17.578 C-9.475 16.553 -8.892 15.529 -8.291 14.473 C-7.985 13.941 -7.985 13.941 -6.438 11.25 C-5.822 10.171 -5.206 9.092 -4.572 7.98 C-3.052 5.318 -1.528 2.658 0 0 Z M9 13 C9 13.33 9 13.66 9 14 C20.88 14 32.76 14 45 14 C45 13.67 45 13.34 45 13 C33.12 13 21.24 13 9 13 Z M-13 25 C-12 27 -12 27 -12 27 Z M16 49 C17 52 17 52 17 52 Z " fill="#3C5A5F" transform="translate(25,5)"/>
<path d="M0 0 C1.481 -0.04 2.964 -0.05 4.446 -0.036 C5.231 -0.044 6.016 -0.051 6.825 -0.058 C8.485 -0.066 10.146 -0.061 11.806 -0.044 C14.344 -0.025 16.878 -0.064 19.416 -0.109 C21.03 -0.109 22.644 -0.106 24.258 -0.099 C25.015 -0.114 25.773 -0.129 26.553 -0.145 C28.707 -0.098 28.707 -0.098 32.418 0.663 C36.418 5.32 36.418 5.32 36.418 8.663 C37.144 8.669 37.87 8.676 38.617 8.682 C42.956 10.201 44.143 13.429 46.231 17.35 C46.434 17.705 46.434 17.705 47.463 19.497 C49.778 23.71 50.939 26.731 50.418 31.663 C49.758 31.663 49.098 31.663 48.418 31.663 C48.356 32.127 48.356 32.127 48.043 34.475 C47.418 37.663 47.418 37.663 45.418 40.663 C42.293 40.85 42.293 40.85 39.418 40.663 C37.184 36.915 35.473 33.881 34.418 29.663 C33.923 29.209 33.428 28.755 32.918 28.288 C30.779 25.97 30.759 23.727 30.418 20.663 C29.428 20.333 28.438 20.003 27.418 19.663 C26.606 17.788 26.606 17.788 26.418 15.663 C27.078 14.673 27.738 13.683 28.418 12.663 C22.313 12.498 22.313 12.498 -8.582 11.663 C-5.003 0.926 -5.003 0.926 0 0 Z " fill="#131414" transform="translate(43.581787109375,5.337158203125)"/>
<path d="M0 0 C5.475 -0.585 10.541 -0.857 16 0 C19.276 2.747 20.415 6.098 22 10 C23.196 12.206 24.425 14.394 25.688 16.562 C26.248 17.574 26.809 18.586 27.387 19.629 C29 22 29 22 32 23 C31.752 24.176 31.505 25.351 31.25 26.562 C30.602 31.561 32.157 33.939 35 38 C35.66 38.66 36.32 39.32 37 40 C25.096 41.193 25.096 41.193 20 40 C16.11 36.661 14.641 32.65 13.457 27.754 C13 26 13 26 11.688 24.688 C8.125 21.125 6.206 16.822 5 12 C4.022 10.978 3.019 9.98 2 9 C0.25 6.562 0.25 6.562 -1 4 C-0.578 1.84 -0.578 1.84 0 0 Z M16 3 C17 5 17 5 17 5 Z M24 17 C25 19 25 19 25 19 Z " fill="#30565C" transform="translate(5,51)"/>
<path d="M0 0 C2.867 0.573 3.861 0.861 6 3 C6.258 3.206 6.258 3.206 7.562 4.25 C9.555 6.676 9.659 8.934 10 12 C10.99 12.33 11.98 12.66 13 13 C13.33 14.98 13.66 16.96 14 19 C14.99 19.33 15.98 19.66 17 20 C17.975 22.999 18.317 25.15 17.199 28.145 C15.961 30.382 14.797 32.177 13 34 C9.188 35 9.188 35 6 35 C3.765 31.252 2.054 28.218 1 24 C0.567 23.567 0.134 23.134 -0.312 22.688 C-2.884 20.116 -4.829 17.437 -6 14 C-5.862 8.497 -3.214 4.286 0 0 Z M16 22 C17 25 17 25 17 25 Z " fill="#232423" transform="translate(25,32)"/>
<path d="M0 0 C16.5 0 33 0 50 0 C50 0.33 50 0.66 50 1 C33.5 1 17 1 0 1 C0 0.67 0 0.34 0 0 Z " fill="#415050" transform="translate(27,3)"/>
<path d="M0 0 C9.9 0 19.8 0 30 0 C30 0.33 30 0.66 30 1 C20.1 1 10.2 1 0 1 C0 0.67 0 0.34 0 0 Z " fill="#0B0B0B" transform="translate(37,21)"/>
<path d="M0 0 C4.95 0 9.9 0 15 0 C15 0.33 15 0.66 15 1 C10.05 1 5.1 1 0 1 C0 0.67 0 0.34 0 0 Z " fill="#3F476E" transform="translate(27,92)"/>
<path d="M0 0 C4.62 0 9.24 0 14 0 C14 0.33 14 0.66 14 1 C9.38 1 4.76 1 0 1 C0 0.67 0 0.34 0 0 Z " fill="#454545" transform="translate(67,92)"/>
<path d="M0 0 C4.29 0 8.58 0 13 0 C13 0.33 13 0.66 13 1 C8.71 1 4.42 1 0 1 C0 0.67 0 0.34 0 0 Z " fill="#090909" transform="translate(6,49)"/>
<path d="M0 0 C0.33 0.165 0.33 0.165 2 1 C1.67 1.99 1.34 2.98 1 4 C0.67 2.68 0.34 1.36 0 0 Z " fill="#2A2A2A" transform="translate(61,53)"/>
<path d="" fill="#6A6A6A" transform="translate(0,0)"/>
<path d="" fill="#557F7F" transform="translate(0,0)"/>
<path d="" fill="#949494" transform="translate(0,0)"/>
<path d="" fill="#6A6A6A" transform="translate(0,0)"/>
<path d="" fill="#555555" transform="translate(0,0)"/>
<path d="" fill="#7F7F7F" transform="translate(0,0)"/>
<path d="M0 0 C2 1 2 1 2 1 Z " fill="#2A2A2A" transform="translate(33,68)"/>
<path d="" fill="#7F7F7F" transform="translate(0,0)"/>
<path d="" fill="#6A6A6A" transform="translate(0,0)"/>
<path d="" fill="#555555" transform="translate(0,0)"/>
<path d="" fill="#555555" transform="translate(0,0)"/>
<path d="" fill="#7F7F7F" transform="translate(0,0)"/>
<path d="" fill="#3F3F3F" transform="translate(0,0)"/>
<path d="" fill="#94BFBF" transform="translate(0,0)"/>
<path d="" fill="#555555" transform="translate(0,0)"/>
<path d="" fill="#2A2A2A" transform="translate(0,0)"/>
<path d="M0 0 C2 1 2 1 2 1 Z " fill="#FFFFFF" transform="translate(85,47)"/>
<path d="" fill="#2A2A2A" transform="translate(0,0)"/>
<path d="" fill="#555555" transform="translate(0,0)"/>
<path d="" fill="#6A6A6A" transform="translate(0,0)"/>
<path d="M0 0 C2 1 2 1 2 1 Z " fill="#BFBFBF" transform="translate(95,38)"/>
<path d="" fill="#6A6A6A" transform="translate(0,0)"/>
<path d="" fill="#7F7F7F" transform="translate(0,0)"/>
<path d="" fill="#557F7F" transform="translate(0,0)"/>
<path d="" fill="#5F5F5F" transform="translate(0,0)"/>
<path d="" fill="#6A6A6A" transform="translate(0,0)"/>
<path d="" fill="#555555" transform="translate(0,0)"/>
<path d="" fill="#555555" transform="translate(0,0)"/>
<path d="" fill="#FFFFFF" transform="translate(0,0)"/>
<path d="" fill="#000000" transform="translate(0,0)"/>
<path d="" fill="#000000" transform="translate(0,0)"/>
<path d="" fill="#FFFFFF" transform="translate(0,0)"/>
<path d="" fill="#000000" transform="translate(0,0)"/>
<path d="" fill="#FFFFFF" transform="translate(0,0)"/>
<path d="" fill="#FFFFFF" transform="translate(0,0)"/>
<path d="" fill="#000000" transform="translate(0,0)"/>
<path d="" fill="#FFFFFF" transform="translate(0,0)"/>
<path d="" fill="#000000" transform="translate(0,0)"/>
<path d="" fill="#00FFFF" transform="translate(0,0)"/>
</svg>
