<?xml version="1.0" encoding="UTF-8"?>
<!-- Generator: visioncortex VTracer 0.6.12 -->
<svg version="1.1" xmlns="http://www.w3.org/2000/svg" width="55" height="48">
<path d="M0 0 C3.63 0 7.26 0 11 0 C10.483 0.797 9.966 1.593 9.434 2.414 C9.104 2.944 9.104 2.944 7.438 5.625 C6.776 6.669 6.115 7.713 5.434 8.789 C3.485 13.153 4.197 15.746 5.754 20.117 C6.021 20.697 6.288 21.277 6.562 21.875 C7.037 22.906 7.511 23.938 8 25 C5.36 25 2.72 25 0 25 C0 16.75 0 8.5 0 0 Z " fill="#000000" transform="translate(0,0)"/>
<path d="M0 0 C3.96 0 7.92 0 12 0 C12 7.26 12 14.52 12 22 C11.01 22 10.02 22 9 22 C9 21.34 9 20.68 9 20 C8.34 19.67 7.68 19.34 7 19 C7.33 18.67 7.66 18.34 8 18 C6.005 13.065 3.671 8.516 0.988 3.918 C0 2 0 2 0 0 Z " fill="#000000" transform="translate(43,0)"/>
<path d="M0 0 C6.27 0 12.54 0 19 0 C19 0.33 19 0.66 19 1 C12.73 1 6.46 1 0 1 C0 0.67 0 0.34 0 0 Z " fill="#000000" transform="translate(17,7)"/>
<path d="M0 0 C5.61 0 11.22 0 17 0 C17 0.33 17 0.66 17 1 C11.39 1 5.78 1 0 1 C0 0.67 0 0.34 0 0 Z " fill="#000000" transform="translate(18,9)"/>
<path d="M0 0 C3.182 3.978 5.414 7.366 7.75 11.812 C8.364 12.974 8.977 14.135 9.609 15.332 C10.068 16.212 10.527 17.093 11 18 C7.37 18 3.74 18 0 18 C0 12.06 0 6.12 0 0 Z " fill="#000000" transform="translate(0,30)"/>
<path d="M0 0 C0.33 0 0.66 0 1 0 C1 5.94 1 11.88 1 18 C-2.3 18 -5.6 18 -9 18 C-7.456 13.86 -5.49 10.064 -3.375 6.188 C-3.05 5.59 -2.725 4.993 -2.391 4.377 C-1.596 2.917 -0.798 1.458 0 0 Z " fill="#000000" transform="translate(54,30)"/>
<path d="M0 0 C2.969 2.545 4.362 5.49 6 9 C2.7 9 -0.6 9 -4 9 C-2.801 5.917 -1.523 2.937 0 0 Z " fill="#000000" transform="translate(27,39)"/>
</svg>
