<?xml version="1.0" encoding="UTF-8"?>
<!-- Generator: visioncortex VTracer 0.6.12 -->
<svg version="1.1" xmlns="http://www.w3.org/2000/svg" width="110" height="96">
<path d="M0 0 C0.409 0.003 0.409 0.003 2.476 0.017 C5.085 0.04 7.692 0.09 10.301 0.141 C12.07 0.161 13.839 0.179 15.607 0.195 C19.943 0.239 24.278 0.308 28.613 0.391 C29.022 1.122 29.43 1.853 29.851 2.606 C31.377 5.337 32.903 8.067 34.43 10.797 C35.412 12.553 36.392 14.309 37.373 16.064 C37.995 17.176 38.617 18.288 39.258 19.434 C39.543 19.944 39.543 19.944 40.988 22.528 C42.055 24.407 43.167 26.262 44.325 28.087 C45.613 30.391 45.613 30.391 45.578 33.211 C44.335 37.307 42.42 40.642 40.176 44.266 C39.768 44.954 39.36 45.642 38.939 46.352 C37.894 48.071 36.76 49.737 35.613 51.391 C34.953 51.391 34.293 51.391 33.613 51.391 C33.613 53.371 33.613 55.351 33.613 57.391 C34.273 57.721 34.933 58.051 35.613 58.391 C35.943 56.411 36.273 54.431 36.613 52.391 C37.603 52.061 38.593 51.731 39.613 51.391 C39.943 49.411 40.273 47.431 40.613 45.391 C41.603 45.061 42.593 44.731 43.613 44.391 C43.943 42.411 44.273 40.431 44.613 38.391 C45.603 38.061 46.593 37.731 47.613 37.391 C47.943 35.411 48.273 33.431 48.613 31.391 C49.603 31.061 50.593 30.731 51.613 30.391 C51.696 29.483 51.778 28.576 51.863 27.641 C52.723 23.917 53.536 22.613 56.613 20.391 C59.363 20.141 59.363 20.141 61.613 20.391 C65.553 26.054 66.825 30.512 65.613 37.391 C63.673 41.943 61.156 46.066 58.551 50.266 C57.894 51.36 57.237 52.454 56.561 53.582 C55.244 55.774 53.912 57.956 52.563 60.127 C51.251 62.324 50.016 64.57 48.861 66.853 C44.736 74.865 44.736 74.865 41.537 76.362 C39.217 76.649 37.243 76.555 34.926 76.266 C34.18 76.228 33.434 76.191 32.666 76.152 C25.54 75.682 25.54 75.682 22.613 73.391 C21.04 71.151 19.688 69.016 18.363 66.641 C18 66.032 17.636 65.424 17.262 64.797 C15.009 60.833 14.08 57.932 14.613 53.391 C15.988 50.516 15.988 50.516 17.613 48.391 C18.273 48.391 18.933 48.391 19.613 48.391 C19.644 47.978 19.644 47.978 19.801 45.891 C20.714 41.957 22.28 39.623 24.652 36.418 C25.981 33.614 25.553 32.327 24.613 29.391 C23.195 26.277 23.195 26.277 21.426 23.078 C20.855 22.009 20.284 20.941 19.695 19.84 C17.613 17.391 17.613 17.391 14.375 17.035 C13.464 17.152 12.552 17.27 11.613 17.391 C11.778 18.381 11.778 18.381 12.613 23.391 C13.603 23.721 14.593 24.051 15.613 24.391 C17.254 26.754 17.254 26.754 18.863 29.703 C19.405 30.669 19.946 31.634 20.504 32.629 C21.668 35.528 21.771 36.556 20.613 39.391 C19.953 39.391 19.293 39.391 18.613 39.391 C18.507 40.271 18.4 41.152 18.291 42.06 C17.592 45.493 16.564 47.692 14.777 50.684 C14.208 51.643 13.638 52.603 13.051 53.592 C12.453 54.577 11.855 55.563 11.238 56.578 C10.648 57.575 10.057 58.572 9.449 59.6 C7.064 63.583 4.911 67.119 1.613 70.391 C1.448 71.092 1.283 71.793 1.113 72.516 C0.948 73.134 0.783 73.753 0.613 74.391 C-5.472 76.419 -13.067 76.732 -19.387 75.391 C-22.673 72.963 -23.809 70.085 -25.387 66.391 C-26.471 64.608 -27.576 62.837 -28.699 61.078 C-31.275 56.88 -31.275 56.88 -31.867 54.285 C-32.525 51.886 -33.618 51.139 -35.387 49.391 C-36.869 47.097 -38.272 44.814 -39.637 42.453 C-39.825 42.143 -39.825 42.143 -40.777 40.572 C-42.98 36.77 -43.497 35.833 -42.387 31.391 C-36.777 31.391 -31.167 31.391 -25.387 31.391 C-24.727 33.041 -24.067 34.691 -23.387 36.391 C-22.387 38.391 -22.387 38.391 -21.02 39.707 C-19.046 41.742 -17.717 43.897 -16.262 46.328 C-15.744 47.183 -15.225 48.037 -14.691 48.918 C-13.387 51.391 -13.387 51.391 -12.895 53.645 C-12.727 54.221 -12.559 54.797 -12.387 55.391 C-11.397 55.721 -10.407 56.051 -9.387 56.391 C-7.417 53.422 -5.522 50.413 -3.637 47.391 C-3.079 46.551 -2.52 45.712 -1.945 44.848 C1.891 38.583 1.891 38.583 1.084 35.121 C0.004 33.016 0.004 33.016 -1.229 31.18 C-2.477 29.251 -2.868 27.608 -3.387 25.391 C-4.364 24.368 -5.367 23.371 -6.387 22.391 C-9.607 17.576 -12.356 13.329 -12.449 7.453 C-9.994 0.375 -7.214 -0.188 0 0 Z M7.613 14.391 C7.613 14.721 7.613 15.051 7.613 15.391 C11.243 15.391 14.873 15.391 18.613 15.391 C18.613 15.061 18.613 14.731 18.613 14.391 C14.983 14.391 11.353 14.391 7.613 14.391 Z M19.613 35.391 C20.613 37.391 20.613 37.391 20.613 37.391 Z " fill="#274E53" transform="translate(43.38671875,19.609375)"/>
<path d="M0 0 C19.8 0 39.6 0 60 0 C60.33 0.825 60.33 0.825 62 5 C63 7 63 7 64.398 8.348 C66.228 10.235 67.36 12.136 68.625 14.438 C69.05 15.199 69.476 15.961 69.914 16.746 C70.926 18.845 71.451 20.75 72 23 C72.979 24.021 73.98 25.021 75 26 C76.736 28.604 77.055 29.598 76.625 32.75 C76.419 33.492 76.213 34.235 76 35 C75.34 35 74.68 35 74 35 C73.938 35.464 73.938 35.464 73.625 37.812 C73 41 73 41 71 44 C68.062 44.5 68.062 44.5 65 44 C63.12 41.667 62.185 39.784 61.5 36.875 C61 35 61 35 59.633 33.66 C57.776 31.772 56.649 29.88 55.375 27.562 C54.95 26.801 54.524 26.039 54.086 25.254 C53 23 53 23 52.539 20.902 C51.854 18.486 50.927 17.591 49 16 C46.066 15.669 43.333 15.511 40.395 15.488 C39.555 15.47 38.716 15.452 37.851 15.434 C35.172 15.38 32.492 15.346 29.812 15.312 C27.995 15.279 26.178 15.245 24.361 15.209 C19.908 15.124 15.454 15.057 11 15 C10.67 15.825 10.67 15.825 9 20 C8.34 20 7.68 20 7 20 C6.928 20.454 6.928 20.454 6.562 22.75 C6 26 6 26 5.375 28.25 C5 30 5 30 6 32 C6.433 32.392 6.866 32.784 7.312 33.188 C10.78 36.912 12.777 41.11 14 46 C14.978 47.022 15.981 48.02 17 49 C20.101 53.319 20.101 53.319 19.723 55.867 C18.904 58.282 17.889 60.438 16.688 62.688 C16.483 63.081 16.483 63.081 15.449 65.074 C14 67 14 67 12.02 67.832 C10 68 10 68 7 67 C5.353 64.656 4.159 62.674 3.5 59.875 C3 58 3 58 1.678 56.714 C-2.067 52.889 -4.48 47.834 -7.188 43.25 C-7.842 42.178 -8.496 41.105 -9.17 40 C-9.788 38.953 -10.406 37.907 -11.043 36.828 C-11.327 36.353 -11.327 36.353 -12.762 33.95 C-14.229 30.455 -14.221 27.753 -14 24 C-13.01 23.67 -12.02 23.34 -11 23 C-10.67 21.02 -10.34 19.04 -10 17 C-9.01 16.67 -8.02 16.34 -7 16 C-6.918 15.319 -6.835 14.639 -6.75 13.938 C-5.777 10.125 -4.042 7.359 -2 4 C-1.34 4 -0.68 4 0 4 C0 2.68 0 1.36 0 0 Z M10 13 C10.33 13.66 10.66 14.32 11 15 C23.87 14.67 36.74 14.34 50 14 C50 13.67 50 13.34 50 13 C36.8 13 23.6 13 10 13 Z M75 30 C76 33 76 33 76 33 Z " fill="#050606" transform="translate(23,1)"/>
<path d="M0 0 C0.928 0.083 1.856 0.165 2.812 0.25 C6.752 5.914 8.024 10.371 6.812 17.25 C4.872 21.803 2.356 25.926 -0.25 30.125 C-0.578 30.672 -0.578 30.672 -2.24 33.441 C-3.556 35.633 -4.889 37.815 -6.238 39.987 C-7.55 42.184 -8.784 44.429 -9.94 46.712 C-14.065 54.725 -14.065 54.725 -17.263 56.221 C-19.584 56.509 -21.557 56.414 -23.875 56.125 C-24.621 56.088 -25.366 56.05 -26.135 56.012 C-33.261 55.541 -33.261 55.541 -36.188 53.25 C-37.761 51.011 -39.112 48.875 -40.438 46.5 C-40.619 46.196 -40.619 46.196 -41.539 44.656 C-43.792 40.692 -44.721 37.792 -44.188 33.25 C-42.812 30.375 -42.812 30.375 -41.188 28.25 C-40.528 28.25 -39.867 28.25 -39.188 28.25 C-39.126 27.425 -39.064 26.6 -39 25.75 C-37.864 20.857 -35.665 16.022 -31.473 13.023 C-28.244 11.931 -25.334 12.062 -21.938 12.125 C-20.674 12.143 -19.411 12.161 -18.109 12.18 C-17.145 12.203 -16.181 12.226 -15.188 12.25 C-14.397 14.535 -14.011 15.776 -14.868 18.081 C-15.238 18.689 -15.608 19.296 -15.988 19.922 C-16.188 20.254 -16.188 20.254 -17.201 21.934 C-17.63 22.616 -18.058 23.297 -18.5 24 C-18.917 24.697 -19.334 25.395 -19.764 26.113 C-20.84 27.867 -22.007 29.564 -23.188 31.25 C-23.847 31.25 -24.507 31.25 -25.188 31.25 C-25.188 33.23 -25.188 35.21 -25.188 37.25 C-24.528 37.58 -23.868 37.91 -23.188 38.25 C-22.858 36.27 -22.528 34.29 -22.188 32.25 C-21.198 31.92 -20.207 31.59 -19.188 31.25 C-18.858 29.27 -18.528 27.29 -18.188 25.25 C-17.198 24.92 -16.207 24.59 -15.188 24.25 C-14.858 22.27 -14.528 20.29 -14.188 18.25 C-13.198 17.92 -12.207 17.59 -11.188 17.25 C-10.858 15.27 -10.528 13.29 -10.188 11.25 C-9.197 10.92 -8.208 10.59 -7.188 10.25 C-7.084 9.343 -6.981 8.435 -6.875 7.5 C-5.867 2.736 -5.117 0.401 0 0 Z " fill="#060707" transform="translate(102.1875,39.75)"/>
<path d="M0 0 C5.61 0 11.22 0 17 0 C15.724 3.19 14.537 5.964 12.938 8.938 C11.235 12.272 10.376 15.242 10 19 C9.01 19.33 8.02 19.66 7 20 C6.928 20.454 6.928 20.454 6.562 22.75 C6 26 6 26 5.375 28.25 C5 30 5 30 6 32 C6.433 32.392 6.866 32.784 7.312 33.188 C10.78 36.912 12.777 41.11 14 46 C14.978 47.022 15.981 48.02 17 49 C20.101 53.319 20.101 53.319 19.723 55.867 C18.904 58.282 17.889 60.438 16.688 62.688 C16.483 63.081 16.483 63.081 15.449 65.074 C14 67 14 67 12.02 67.832 C10 68 10 68 7 67 C5.353 64.656 4.159 62.674 3.5 59.875 C3 58 3 58 1.678 56.714 C-2.067 52.889 -4.48 47.834 -7.188 43.25 C-7.842 42.178 -8.496 41.105 -9.17 40 C-9.788 38.953 -10.406 37.907 -11.043 36.828 C-11.327 36.353 -11.327 36.353 -12.762 33.95 C-14.229 30.455 -14.221 27.753 -14 24 C-13.01 23.67 -12.02 23.34 -11 23 C-10.67 21.02 -10.34 19.04 -10 17 C-9.01 16.67 -8.02 16.34 -7 16 C-6.918 15.319 -6.835 14.639 -6.75 13.938 C-5.777 10.125 -4.042 7.359 -2 4 C-1.34 4 -0.68 4 0 4 C0 2.68 0 1.36 0 0 Z " fill="#254C50" transform="translate(23,1)"/>
<path d="M0 0 C5.61 0 11.22 0 17 0 C17.66 1.65 18.32 3.3 19 5 C20 7 20 7 21.367 8.316 C23.341 10.351 24.67 12.506 26.125 14.938 C26.384 15.365 26.384 15.365 27.695 17.527 C28.865 19.744 29.434 21.587 30 24 C30.495 24.433 30.99 24.866 31.5 25.312 C33 27 33 27 33.312 30.062 C34.264 35.511 36.993 39.429 40 44 C24.863 45.365 24.863 45.365 20.746 42.348 C19.212 39.969 18.111 37.602 17 35 C15.915 33.217 14.811 31.446 13.688 29.688 C11.112 25.489 11.112 25.489 10.52 22.895 C9.862 20.496 8.769 19.748 7 18 C5.517 15.706 4.114 13.424 2.75 11.062 C2.374 10.442 1.997 9.821 1.609 9.182 C-0.593 5.379 -1.111 4.442 0 0 Z " fill="#254B50" transform="translate(1,51)"/>
<path d="M0 0 C0.33 0.66 0.66 1.32 1 2 C1.99 1.67 2.98 1.34 4 1 C6.019 0.906 8.041 0.87 10.062 0.875 C11.126 0.872 12.189 0.87 13.285 0.867 C16 1 16 1 18 2 C18.33 1.34 18.66 0.68 19 0 C18.67 1.32 18.34 2.64 18 4 C17.34 4 16.68 4 16 4 C15.893 4.881 15.787 5.762 15.677 6.669 C14.979 10.102 13.951 12.301 12.164 15.293 C11.594 16.253 11.025 17.212 10.438 18.201 C9.839 19.187 9.241 20.172 8.625 21.188 C8.035 22.185 7.444 23.182 6.836 24.209 C4.452 28.191 2.302 31.734 -1 35 C-1.352 36.329 -1.688 37.662 -2 39 C-2.33 39.165 -2.33 39.165 -4 40 C-12.086 32.351 -12.086 32.351 -12.449 26.02 C-12.365 19.736 -9.222 15.152 -6 9.938 C-5.428 8.977 -4.855 8.016 -4.266 7.025 C-2.861 4.672 -1.439 2.332 0 0 Z " fill="#060808" transform="translate(46,55)"/>
<path d="M0 0 C0.66 0.33 1.32 0.66 2 1 C2.144 1.619 2.289 2.238 2.438 2.875 C3 5 3 5 4.312 6.312 C7.875 9.875 9.794 14.178 11 19 C11.978 20.022 12.981 21.02 14 22 C17.101 26.319 17.101 26.319 16.723 28.867 C15.904 31.282 14.889 33.438 13.688 35.688 C13.483 36.081 13.483 36.081 12.449 38.074 C11 40 11 40 9.02 40.832 C7 41 7 41 4 40 C2.353 37.656 1.159 35.674 0.5 32.875 C0 31 0 31 -1.293 29.75 C-3.559 27.427 -5.119 24.89 -6.812 22.125 C-7.458 21.096 -8.104 20.068 -8.77 19.008 C-10 16 -10 16 -9.387 13.445 C-8.929 12.638 -8.471 11.831 -8 11 C-7.526 10.129 -7.051 9.257 -6.562 8.359 C-6.305 7.929 -6.305 7.929 -5 5.75 C-4.484 4.879 -3.969 4.007 -3.438 3.109 C-2 1 -2 1 0 0 Z " fill="#060807" transform="translate(26,28)"/>
<path d="M0 0 C5.61 0 11.22 0 17 0 C16.67 0.99 16.34 1.98 16 3 C11.71 2.67 7.42 2.34 3 2 C2.67 3.98 2.34 5.96 2 8 C0.438 6.25 0.438 6.25 -1 4 C-0.67 2.68 -0.34 1.36 0 0 Z " fill="#556E70" transform="translate(1,51)"/>
<path d="M0 0 C10.89 0 21.78 0 33 0 C33 0.33 33 0.66 33 1 C22.11 1 11.22 1 0 1 C0 0.67 0 0.34 0 0 Z " fill="#4C5E6D" transform="translate(37,18)"/>
<path d="M0 0 C4.95 0 9.9 0 15 0 C15 0.33 15 0.66 15 1 C10.05 1 5.1 1 0 1 C0 0.67 0 0.34 0 0 Z " fill="#7F9090" transform="translate(1,49)"/>
<path d="" fill="#465B5B" transform="translate(0,0)"/>
<path d="" fill="#000000" transform="translate(0,0)"/>
<path d="" fill="#000000" transform="translate(0,0)"/>
<path d="" fill="#000000" transform="translate(0,0)"/>
<path d="" fill="#555555" transform="translate(0,0)"/>
<path d="" fill="#3F6A6A" transform="translate(0,0)"/>
<path d="" fill="#000000" transform="translate(0,0)"/>
<path d="" fill="#000000" transform="translate(0,0)"/>
<path d="" fill="#000000" transform="translate(0,0)"/>
<path d="" fill="#000000" transform="translate(0,0)"/>
<path d="" fill="#000000" transform="translate(0,0)"/>
<path d="" fill="#000000" transform="translate(0,0)"/>
<path d="" fill="#555555" transform="translate(0,0)"/>
<path d="" fill="#000000" transform="translate(0,0)"/>
<path d="" fill="#000000" transform="translate(0,0)"/>
<path d="" fill="#000000" transform="translate(0,0)"/>
<path d="" fill="#000000" transform="translate(0,0)"/>
<path d="M0 0 C2 1 2 1 2 1 Z " fill="#000000" transform="translate(90,46)"/>
<path d="" fill="#6A6A6A" transform="translate(0,0)"/>
<path d="" fill="#000000" transform="translate(0,0)"/>
<path d="" fill="#555555" transform="translate(0,0)"/>
<path d="M0 0 C2 1 2 1 2 1 Z " fill="#000000" transform="translate(101,38)"/>
<path d="" fill="#000000" transform="translate(0,0)"/>
<path d="" fill="#000000" transform="translate(0,0)"/>
<path d="" fill="#000000" transform="translate(0,0)"/>
<path d="" fill="#000000" transform="translate(0,0)"/>
<path d="" fill="#2A5555" transform="translate(0,0)"/>
<path d="" fill="#555555" transform="translate(0,0)"/>
<path d="" fill="#000000" transform="translate(0,0)"/>
<path d="" fill="#2A5555" transform="translate(0,0)"/>
<path d="" fill="#000000" transform="translate(0,0)"/>
<path d="" fill="#3F6A6A" transform="translate(0,0)"/>
<path d="" fill="#000000" transform="translate(0,0)"/>
<path d="" fill="#000000" transform="translate(0,0)"/>
<path d="" fill="#000000" transform="translate(0,0)"/>
<path d="" fill="#000000" transform="translate(0,0)"/>
<path d="" fill="#000000" transform="translate(0,0)"/>
<path d="" fill="#000000" transform="translate(0,0)"/>
<path d="" fill="#000000" transform="translate(0,0)"/>
<path d="" fill="#7F7F7F" transform="translate(0,0)"/>
<path d="" fill="#000000" transform="translate(0,0)"/>
<path d="" fill="#000000" transform="translate(0,0)"/>
</svg>
