<?xml version="1.0" encoding="UTF-8"?>
<!-- Generator: visioncortex VTracer 0.6.12 -->
<svg version="1.1" xmlns="http://www.w3.org/2000/svg" width="54" height="48">
<path d="M0 0 C17.82 0 35.64 0 54 0 C54 8.25 54 16.5 54 25 C50 22 50 22 49 20 C48.34 19.67 47.68 19.34 47 19 C47.66 19 48.32 19 49 19 C48.59 18.276 48.18 17.551 47.758 16.805 C47.219 15.838 46.68 14.871 46.125 13.875 C45.591 12.924 45.058 11.972 44.508 10.992 C43 8 43 8 41 2 C31.1 2 21.2 2 11 2 C10.34 3.98 9.68 5.96 9 8 C8.258 8.99 7.515 9.98 6.75 11 C5 14 5 14 5.688 17.188 C5.904 17.652 5.904 17.652 7 20 C7.33 20.99 7.66 21.98 8 23 C8.66 23.66 9.32 24.32 10 25 C8.522 25.194 7.042 25.38 5.562 25.562 C4.739 25.667 3.915 25.771 3.066 25.879 C2.384 25.919 1.703 25.959 1 26 C0.67 25.67 0.34 25.34 0 25 C0 16.75 0 8.5 0 0 Z " fill="#000000" transform="translate(0,0)"/>
<path d="M0 0 C5.94 0 11.88 0 18 0 C16 2 16 2 12.812 2.266 C12.183 2.263 12.183 2.263 9 2.25 C7.742 2.255 6.484 2.26 5.188 2.266 C2 2 2 2 0 0 Z " fill="#000000" transform="translate(17,9)"/>
<path d="M0 0 C3.095 3.095 5.067 6.293 7.188 10.062 C7.556 10.7 7.924 11.337 8.303 11.994 C11 16.743 11 16.743 11 19 C14.3 19 17.6 19 21 19 C21 19.33 21 19.66 21 20 C13.963 21.104 7.122 21.074 0 21 C0 14.07 0 7.14 0 0 Z " fill="#000000" transform="translate(0,27)"/>
<path d="M0 0 C0.33 0 0.66 0 1 0 C1 6.93 1 13.86 1 21 C-9.89 21 -20.78 21 -32 21 C-30.35 18.03 -28.7 15.06 -27 12 C-26.34 12 -25.68 12 -25 12 C-24.01 13.98 -23.02 15.96 -22 18 C-21.34 17.67 -20.68 17.34 -20 17 C-20 17.66 -20 18.32 -20 19 C-16.7 19 -13.4 19 -10 19 C-9.754 18.152 -9.508 17.304 -9.254 16.43 C-7.888 12.692 -6.052 9.469 -3.938 6.125 C-3.573 5.532 -3.209 4.939 -2.834 4.328 C-1.922 2.865 -0.965 1.429 0 0 Z " fill="#000000" transform="translate(53,27)"/>
</svg>
