<?xml version="1.0" encoding="UTF-8"?>
<!-- Generator: visioncortex VTracer 0.6.12 -->
<svg version="1.1" xmlns="http://www.w3.org/2000/svg" width="157" height="36">
<path d="M0 0 C2.31 0 4.62 0 7 0 C5.967 2.78 4.959 5.059 3.25 7.5 C2 10 2 10 2.75 12.688 C2.956 13.069 2.956 13.069 4 15 C4.33 15.66 4.66 16.32 5 17 C3.35 17 1.7 17 0 17 C0 11.39 0 5.78 0 0 Z " fill="#000000" transform="translate(0,0)"/>
<path d="M0 0 C41.25 0 82.5 0 125 0 C125 4.29 125 8.58 125 13 C124.01 12.67 123.02 12.34 122 12 C122.33 11.67 122.66 11.34 123 11 C120.69 11 118.38 11 116 11 C115.67 11.66 115.34 12.32 115 13 C113.02 12.34 111.04 11.68 109 11 C109 10.34 109 9.68 109 9 C107.68 9 106.36 9 105 9 C105 14.94 105 20.88 105 27 C104.67 27 104.34 27 104 27 C104 22.38 104 17.76 104 13 C103.278 13.021 103.278 13.021 99.625 13.125 C97.164 13.195 97.164 13.195 95 13 C93.812 11.812 92.639 10.609 91.5 9.375 C90 8 90 8 88 8 C87.01 8.33 86.02 8.66 85 9 C84.67 9.99 84.34 10.98 84 12 C82.68 11.67 81.36 11.34 80 11 C80 10.34 80 9.68 80 9 C73.25 9.875 73.25 9.875 71 11 C71 10.34 71 9.68 71 9 C69.68 9 68.36 9 67 9 C66.67 9.66 66.34 10.32 66 11 C63.333 10.333 60.667 9.667 58 9 C57.67 9.99 57.34 10.98 57 12 C56.835 11.835 56.835 11.835 56 11 C55.031 11.165 54.061 11.33 53.062 11.5 C50 12 50 12 48 11 C48 10.34 48 9.68 48 9 C45 8 45 8 43 8 C42.34 8.66 41.68 9.32 41 10 C38.677 10.4 36.343 10.74 34 11 C34 10.34 34 9.68 34 9 C32.68 9 31.36 9 30 9 C30 14.61 30 20.22 30 26 C31.32 26 32.64 26 34 26 C34 23.69 34 21.38 34 19 C34.99 19 35.98 19 37 19 C37 21.31 37 23.62 37 26 C38.32 26 39.64 26 41 26 C40.905 25.157 40.809 24.314 40.711 23.445 C40.6 22.35 40.489 21.254 40.375 20.125 C40.259 19.034 40.143 17.944 40.023 16.82 C40.02 16.355 40.02 16.355 40 14 C40.66 13.34 41.32 12.68 42 12 C42 16.62 42 21.24 42 26 C42.99 26.33 43.98 26.66 45 27 C45.33 22.38 45.66 17.76 46 13 C46.33 13 46.66 13 47 13 C47 18.61 47 24.22 47 30 C48.32 30 49.64 30 51 30 C51.165 29.505 51.165 29.505 52 27 C53.32 27 54.64 27 56 27 C58.75 25 58.75 25 61 23 C61.165 23.495 61.165 23.495 62 26 C64.867 25.427 65.861 25.139 68 23 C68 23.66 68 24.32 68 25 C68.66 25 69.32 25 70 25 C70.33 24.34 70.66 23.68 71 23 C71.165 23.33 71.165 23.33 72 25 C72.66 25.165 72.66 25.165 76 26 C76.66 22.7 77.32 19.4 78 16 C78.33 16 78.66 16 79 16 C79 19.3 79 22.6 79 26 C80.65 26 82.3 26 84 26 C83.969 25.536 83.969 25.536 83.812 23.188 C84 20 84 20 87 17 C87 19.97 87 22.94 87 26 C87.66 26.165 87.66 26.165 91 27 C91.433 27.681 91.866 28.361 92.312 29.062 C92.869 29.702 93.426 30.341 94 31 C97.688 31.25 97.688 31.25 101 31 C101 30.34 101 29.68 101 29 C103.652 27.925 106.284 26.905 109 26 C109 24.02 109 22.04 109 20 C109.99 19.67 110.98 19.34 112 19 C112 21.31 112 23.62 112 26 C113.32 25.67 114.64 25.34 116 25 C116.33 23.02 116.66 21.04 117 19 C117.33 19 117.66 19 118 19 C118.165 20.155 118.165 20.155 119 26 C120.98 26 122.96 26 125 26 C125 29.3 125 32.6 125 36 C84.41 36 43.82 36 2 36 C8 24 8 24 10 21 C9.661 16.701 8.355 14.924 6 11 C4.02 7.37 2.04 3.74 0 0 Z M16.438 9.188 C15 12 15 12 15.188 14.688 C16 17 16 17 17 19 C16.67 19.165 16.67 19.165 15 20 C15.269 23.313 15.591 24.639 18.125 26.875 C21.81 28.317 24.189 27.879 28 27 C30.101 24.899 29.185 20.459 29.188 17.562 C29.2 16.773 29.212 15.983 29.225 15.17 C29.23 13.112 29.122 11.054 29 9 C27 7 27 7 23.125 6.562 C19.735 6.649 19.16 6.863 16.438 9.188 Z M30 7 C34 8 34 8 34 8 Z M58 7 C62 8 62 8 62 8 Z M67 7 C71 8 71 8 71 8 Z M76 7 C80 8 80 8 80 8 Z M105 7 C109 8 109 8 109 8 Z M103 9 C103 9.66 103 10.32 103 11 C100.36 11 97.72 11 95 11 C95 11.33 95 11.66 95 12 C97.97 12 100.94 12 104 12 C103.67 11.01 103.34 10.02 103 9 Z M77 23 C78 25 78 25 78 25 Z M47 31 C51 32 51 32 51 32 Z " fill="#000000" transform="translate(32,0)"/>
<path d="M0 0 C7 8.448 7 8.448 7 12 C4.69 12 2.38 12 0 12 C0 8.04 0 4.08 0 0 Z " fill="#000000" transform="translate(0,24)"/>
<path d="M0 0 C2.019 1.304 4.019 2.638 6 4 C6 4.33 6 4.66 6 5 C3.36 5 0.72 5 -2 5 C-1.34 3.35 -0.68 1.7 0 0 Z " fill="#000000" transform="translate(20,31)"/>
</svg>
