<?xml version="1.0" encoding="UTF-8"?>
<!-- Generator: visioncortex VTracer 0.6.12 -->
<svg version="1.1" xmlns="http://www.w3.org/2000/svg" width="312" height="72">
<path d="M0 0 C6.749 4.21 9.796 10.917 11.65 18.47 C12.13 21.944 11.846 24.607 11 28 C12.65 28 14.3 28 16 28 C19.979 34.029 19.979 34.029 20.062 37.938 C18.657 41.989 16.718 45.664 14 49 C13.34 49 12.68 49 12 49 C11.915 49.849 11.83 50.699 11.742 51.574 C10.891 55.504 9.254 58.467 7.125 61.812 C6.773 62.397 6.421 62.982 6.059 63.584 C3.386 67.871 3.386 67.871 0 69 C-1.831 69.094 -3.666 69.13 -5.5 69.125 C-6.459 69.128 -7.418 69.13 -8.406 69.133 C-11 69 -11 69 -14 68 C-15.824 65.277 -15.824 65.277 -17.688 61.938 C-18.31 60.833 -18.933 59.728 -19.574 58.59 C-20.045 57.735 -20.515 56.881 -21 56 C-24.208 58.891 -25.794 62.227 -27.719 66.039 C-29 68 -29 68 -32 69 C-33.81 69.119 -35.624 69.175 -37.438 69.188 C-38.385 69.202 -39.332 69.216 -40.309 69.23 C-43.12 68.99 -44.668 68.563 -47 67 C-48.23 65.414 -48.23 65.414 -49.188 63.625 C-49.52 63.004 -49.853 62.382 -50.195 61.742 C-51.064 59.862 -51.499 58.004 -52 56 C-52.416 55.613 -52.833 55.227 -53.262 54.828 C-55.765 52.196 -57.454 49.131 -59.25 46 C-59.626 45.371 -60.003 44.742 -60.391 44.094 C-61.343 42.441 -62.18 40.723 -63 39 C-62.67 38.01 -62.34 37.02 -62 36 C-57.38 35.67 -52.76 35.34 -48 35 C-49 33 -49 33 -50.375 31.688 C-53.839 28.09 -55.754 24.303 -56.273 19.27 C-55.713 14.621 -52.9 10.583 -50 7 C-49.34 7 -48.68 7 -48 7 C-47.918 6.051 -47.835 5.103 -47.75 4.125 C-47 1 -47 1 -45.216 -0.166 C-33.266 -4.663 -12.116 -3.475 0 0 Z M-38 10 C-38 10.33 -38 10.66 -38 11 C-28.1 11 -18.2 11 -8 11 C-8 10.67 -8 10.34 -8 10 C-17.9 10 -27.8 10 -38 10 Z M-37 12 C-37.33 12.66 -37.66 13.32 -38 14 C-28.43 14 -18.86 14 -9 14 C-9 13.34 -9 12.68 -9 12 C-18.24 12 -27.48 12 -37 12 Z M-6 15 C-5 17 -5 17 -5 17 Z M-5 20 C-4 22 -4 22 -4 22 Z M-25 24 C-25 24.33 -25 24.66 -25 25 C-22.36 25 -19.72 25 -17 25 C-17 24.67 -17 24.34 -17 24 C-19.64 24 -22.28 24 -25 24 Z M-21 26 C-19.455 31.479 -16.845 36.114 -14 41 C-12.48 39.172 -12.48 39.172 -11 37 C-11.312 34.25 -11.312 34.25 -12 32 C-12.66 32 -13.32 32 -14 32 C-14.66 29.69 -15.32 27.38 -16 25 C-17.721 25 -19.342 25.572 -21 26 Z M7 28 C8 30 8 30 8 30 Z M-34 29 C-33 31 -33 31 -33 31 Z M3 31 C3 35 3 35 5 38 C5.99 36.02 6.98 34.04 8 32 C6.35 31.67 4.7 31.34 3 31 Z M9 31 C10 33 10 33 10 33 Z M2 36 C3 38 3 38 3 38 Z M5 38 C6 40 6 40 6 40 Z M-32 39 C-31 41 -31 41 -31 41 Z M-16 39 C-15 42 -15 42 -15 42 Z M-36 47 C-36.66 47.66 -37.32 48.32 -38 49 C-38.99 49.33 -39.98 49.66 -41 50 C-39.68 51.32 -38.36 52.64 -37 54 C-36.01 52.02 -35.02 50.04 -34 48 C-34.66 47.67 -35.32 47.34 -36 47 Z M-4 47 C-3 49 -3 49 -3 49 Z M-17 48 C-16 50 -16 50 -16 50 Z M-2 50 C-1 52 -1 52 -1 52 Z " fill="#141615" transform="translate(63,2)"/>
<path d="M0 0 C3.3 0 6.6 0 10 0 C10.99 2.97 11.98 5.94 13 9 C13.66 9 14.32 9 15 9 C15 6.69 15 4.38 15 2 C15.66 2 16.32 2 17 2 C17.33 1.34 17.66 0.68 18 0 C21.375 -0.125 21.375 -0.125 25 0 C27.187 2.187 27.38 3.078 28 6 C28.165 6.495 28.165 6.495 29 9 C30.32 8.67 31.64 8.34 33 8 C33.66 5.36 34.32 2.72 35 0 C37.64 0 40.28 0 43 0 C43.165 0.99 43.165 0.99 44 6 C45.98 6 47.96 6 50 6 C50 6.33 50 6.66 50 7 C47.36 7 44.72 7 42 7 C42 14.92 42 22.84 42 31 C41.67 31 41.34 31 41 31 C40.67 26.71 40.34 22.42 40 18 C39.45 19.651 38.922 21.312 38.5 23 C37.82 25.719 36.886 28.342 36 31 C32.647 32.676 29.308 32.363 25.75 31.375 C23.196 29.368 22.801 27.07 22 24 C20 27 20 27 19 29.125 C18 31 18 31 16 32 C12.562 32.312 12.562 32.312 9 32 C7.188 30.188 7.188 30.188 6 28 C5.34 27.01 4.68 26.02 4 25 C3.649 25.413 3.299 25.825 2.938 26.25 C-1.204 29.991 -4.842 32.26 -10.438 32.25 C-11.613 32.167 -12.789 32.085 -14 32 C-14.33 34.64 -14.66 37.28 -15 40 C-17.31 40 -19.62 40 -22 40 C-22 29.44 -22 18.88 -22 8 C-15.07 8 -8.14 8 -1 8 C0 3 0 3 0 0 Z M9 4 C10 7 10 7 10 7 Z M1 7 C2 10 2 10 2 10 Z M10 8 C11 11 11 11 11 11 Z M2 11 C3 13 3 13 3 13 Z M11 11 C12 15 12 15 12 15 Z M40 11 C41 14 41 14 41 14 Z M31 12 C32 15 32 15 32 15 Z M1 13 C2 15 2 15 2 15 Z M13 13 C14 16 14 16 14 16 Z M29 13 C30 16 30 16 30 16 Z M3 14 C2 15 2 15 1.902 17.285 C1.914 18.202 1.926 19.118 1.938 20.062 C1.947 20.982 1.956 21.901 1.965 22.848 C1.976 23.558 1.988 24.268 2 25 C2.33 25 2.66 25 3 25 C3.33 21.37 3.66 17.74 4 14 C3.67 14 3.34 14 3 14 Z M21 14 C22 17 22 17 22 17 Z M-13 15 C-14 17 -14 17 -13.5 19.5 C-13 22 -13 22 -14 24 C-11.69 24.33 -9.38 24.66 -7 25 C-5.4 21.799 -6.968 19.277 -8 16 C-9.65 15.67 -11.3 15.34 -13 15 Z M30 16 C31 19 31 19 31 19 Z M20 17 C21 20 21 20 21 20 Z M22 17 C23 20 23 20 23 20 Z M4 18 C5 21 5 21 5 21 Z M-6 19 C-5 21 -5 21 -5 21 Z M23 20 C24 24 24 24 24 24 Z M5 21 C6 24 6 24 6 24 Z M19 21 C20 24 20 24 20 24 Z " fill="#161817" transform="translate(179,19)"/>
<path d="M0 0 C0.33 0 0.66 0 1 0 C0.67 12.21 0.34 24.42 0 37 C-11.246 41.998 -11.246 41.998 -18 40 C-20.451 38.88 -21.929 37.806 -24 36 C-24 35.01 -24 34.02 -24 33 C-23.67 32.835 -23.67 32.835 -22 32 C-21.67 31.01 -21.34 30.02 -21 29 C-21.66 28.67 -22.32 28.34 -23 28 C-23.66 28.99 -24.32 29.98 -25 31 C-25 23.41 -25 15.82 -25 8 C-24.01 8.99 -23.02 9.98 -22 11 C-21.459 10.509 -20.917 10.018 -20.359 9.512 C-17.428 7.633 -15.697 7.689 -12.25 7.812 C-11.758 7.826 -11.758 7.826 -9.266 7.895 C-8.892 7.912 -8.892 7.912 -7 8 C-7 7.34 -7 6.68 -7 6 C-4.69 6 -2.38 6 0 6 C0 4.02 0 2.04 0 0 Z M-14 16 C-14.33 16.33 -14.66 16.66 -15 17 C-15 17.804 -15 18.609 -15 19.438 C-15 22 -15 22 -16 24 C-13.625 24.625 -13.625 24.625 -11 25 C-10.34 24.34 -9.68 23.68 -9 23 C-9 20.572 -9.501 18.371 -10 16 C-11.32 16 -12.64 16 -14 16 Z M-17 18 C-16 21 -16 21 -16 21 Z M-13.062 30.5 C-14.362 30.665 -15.661 30.83 -17 31 C-16.67 31.66 -16.34 32.32 -16 33 C-13.36 33 -10.72 33 -8 33 C-8 32.01 -8 31.02 -8 30 C-9.701 30 -11.376 30.286 -13.062 30.5 Z M-15 33 C-15 33.33 -15 33.66 -15 34 C-13.02 34 -11.04 34 -9 34 C-9 33.67 -9 33.34 -9 33 C-10.98 33 -12.96 33 -15 33 Z " fill="#1D1E1D" transform="translate(270,19)"/>
<path d="M0 0 C2.554 -0.267 4.863 -0.348 7.414 -0.293 C7.779 -0.291 7.779 -0.291 9.625 -0.28 C11.959 -0.263 14.292 -0.226 16.625 -0.188 C18.206 -0.172 19.786 -0.159 21.367 -0.146 C25.245 -0.113 29.122 -0.062 33 0 C35.048 3.359 37.058 6.739 39.062 10.125 C39.643 11.076 40.224 12.028 40.822 13.008 C41.367 13.936 41.912 14.864 42.473 15.82 C42.727 16.244 42.727 16.244 44.012 18.391 C45.242 21.638 44.818 23.674 44 27 C43.01 27.33 42.02 27.66 41 28 C41.165 28.825 41.165 28.825 42 33 C40.35 32.67 38.7 32.34 37 32 C37 30.68 37 29.36 37 28 C36.34 28 35.68 28 35 28 C35 27.01 35 26.02 35 25 C34.34 25 33.68 25 33 25 C33 23.68 33 22.36 33 21 C32.34 21 31.68 21 31 21 C31 20.01 31 19.02 31 18 C30.01 17.67 29.02 17.34 28 17 C27.34 16.34 26.68 15.68 26 15 C25.34 14.67 24.68 14.34 24 14 C24 13.34 24 12.68 24 12 C23.67 12.165 23.67 12.165 22 13 C20.114 13.085 18.224 13.107 16.336 13.098 C15.214 13.094 14.093 13.091 12.938 13.088 C11.762 13.08 10.586 13.071 9.375 13.062 C8.192 13.058 7.008 13.053 5.789 13.049 C2.859 13.037 -0.07 13.021 -3 13 C-3 12.34 -3 11.68 -3 11 C6.24 11 15.48 11 25 11 C25 10.34 25 9.68 25 9 C15.43 9 5.86 9 -4 9 C-2 3 -2 3 0 0 Z " fill="#101211" transform="translate(30,2)"/>
<path d="M0 0 C1.32 -0.33 2.64 -0.66 4 -1 C4 9.23 4 19.46 4 30 C3.01 29.34 2.02 28.68 1 28 C0.34 28.495 -0.32 28.99 -1 29.5 C-4.738 31.369 -7.931 31.608 -12 31 C-15.25 29.625 -15.25 29.625 -18 28 C-18.763 27.691 -19.526 27.381 -20.312 27.062 C-22 26 -22 26 -23 22 C-19.7 20.68 -16.4 19.36 -13 18 C-17 15 -17 15 -20 14 C-20.33 10.37 -20.66 6.74 -21 3 C-19.342 1.986 -17.673 0.989 -16 0 C-15.381 -0.392 -14.763 -0.784 -14.125 -1.188 C-9.026 -3.137 -4.83 -1.958 0 0 Z M-20 4 C-19 6 -19 6 -19 6 Z M-10 5 C-10.66 5.66 -11.32 6.32 -12 7 C-11.67 7.165 -11.67 7.165 -10 8 C-10.33 8.66 -10.66 9.32 -11 10 C-10.01 10.165 -10.01 10.165 -5 11 C-4.67 9.68 -4.34 8.36 -4 7 C-7 5 -7 5 -10 5 Z M0 7 C-0.99 7.99 -1.98 8.98 -3 10 C-2.67 10.165 -2.67 10.165 -1 11 C-1.33 11.66 -1.66 12.32 -2 13 C-0.68 13.66 0.64 14.32 2 15 C3 14 3 14 3.062 10.938 C3.042 9.968 3.021 8.999 3 8 C2.01 7.67 1.02 7.34 0 7 Z M-10 18 C-11.812 19.438 -11.812 19.438 -13 21 C-12.67 21.66 -12.34 22.32 -12 23 C-9.062 23.75 -9.062 23.75 -6 24 C-5.34 23.34 -4.68 22.68 -4 22 C-4.66 22 -5.32 22 -6 22 C-5.67 21.01 -5.34 20.02 -5 19 C-7.312 18.312 -7.312 18.312 -10 18 Z " fill="#1B1D1C" transform="translate(118,20)"/>
<path d="M0 0 C2.908 -0.062 5.816 -0.124 8.812 -0.188 C9.725 -0.215 10.637 -0.242 11.577 -0.27 C11.939 -0.274 11.939 -0.274 13.77 -0.293 C14.139 -0.301 14.139 -0.301 16.007 -0.341 C18.557 0.095 19.442 0.974 21 3 C21 3.66 21 4.32 21 5 C21.66 5 22.32 5 23 5 C24.351 7.702 24.339 10.118 24.562 13.125 C24.604 13.673 24.604 13.673 24.816 16.445 C24.877 17.288 24.938 18.131 25 19 C24.606 19.235 24.606 19.235 22.613 20.426 C21.124 21.323 19.642 22.235 18.188 23.188 C14.785 24.451 11.613 24.12 8 24 C7.67 26.64 7.34 29.28 7 32 C4.69 32 2.38 32 0 32 C0 21.44 0 10.88 0 0 Z M9 7 C8 9 8 9 8.5 11.5 C9 14 9 14 8 16 C10.31 16.33 12.62 16.66 15 17 C16.6 13.799 15.032 11.277 14 8 C12.35 7.67 10.7 7.34 9 7 Z M16 11 C17 13 17 13 17 13 Z " fill="#131514" transform="translate(157,27)"/>
<path d="M0 0 C7 0 7 0 9 1 C9 2.98 9 4.96 9 7 C11.522 7.841 13.977 8.52 16.562 9.125 C17.348 9.313 18.133 9.501 18.941 9.695 C21 10 21 10 23 9 C22.862 12.813 22.713 16.625 22.562 20.438 C22.523 21.526 22.484 22.615 22.443 23.736 C22.401 24.771 22.36 25.805 22.316 26.871 C22.28 27.829 22.243 28.788 22.205 29.775 C22 32 22 32 21 33 C15.471 33.235 15.471 33.235 13 32 C12.586 28.84 12.586 28.84 12.375 24.938 C12.3 23.647 12.225 22.357 12.148 21.027 C12.099 20.028 12.05 19.029 12 18 C11.34 18 10.68 18 10 18 C9.951 18.999 9.902 19.998 9.852 21.027 C9.777 22.318 9.702 23.608 9.625 24.938 C9.555 26.225 9.486 27.513 9.414 28.84 C9.277 29.883 9.141 30.926 9 32 C7 33 7 33 0 33 C0 22.11 0 11.22 0 0 Z " fill="#111212" transform="translate(123,18)"/>
<path d="M0 0 C3 0.125 3 0.125 4 1.125 C4.368 3.453 4.702 5.787 5 8.125 C5.687 8.258 6.374 8.391 7.082 8.527 C7.983 8.704 8.884 8.881 9.812 9.062 C10.259 9.15 10.259 9.15 12.52 9.59 C15 10.125 15 10.125 18 11.125 C18 18.385 18 25.645 18 33.125 C12 33.125 12 33.125 9 32.125 C9 26.845 9 21.565 9 16.125 C8.01 16.455 7.02 16.785 6 17.125 C6 21.745 6 26.365 6 31.125 C5.34 31.125 4.68 31.125 4 31.125 C3.67 31.785 3.34 32.445 3 33.125 C1 33.168 -1 33.166 -3 33.125 C-4.908 31.217 -4.131 27.81 -4.133 25.281 C-4.134 24.597 -4.135 23.913 -4.136 23.208 C-4.136 21.758 -4.135 20.309 -4.13 18.86 C-4.125 16.634 -4.13 14.409 -4.137 12.184 C-4.136 10.779 -4.135 9.374 -4.133 7.969 C-4.132 6.682 -4.131 5.394 -4.129 4.068 C-3.958 0.165 -3.958 0.165 0 0 Z " fill="#323333" transform="translate(276,17.875)"/>
<path d="M0 0 C0.66 0 1.32 0 2 0 C2 0.99 2 1.98 2 3 C2.66 3.33 3.32 3.66 4 4 C3.67 4.66 3.34 5.32 3 6 C2.375 8.062 2.375 8.062 2 10 C3 11 3 11 5.562 11.062 C6.367 11.042 7.171 11.021 8 11 C8 11.66 8 12.32 8 13 C8.66 13.33 9.32 13.66 10 14 C9 16 9 16 8 17 C10 19 10 19 12 20 C11.67 20.66 11.34 21.32 11 22 C10.34 22 9.68 22 9 22 C9.289 22.626 9.578 23.253 9.875 23.898 C10.246 24.716 10.617 25.533 11 26.375 C11.371 27.187 11.742 27.999 12.125 28.836 C13 31 13 31 13 33 C13.495 33.165 13.495 33.165 16 34 C14.279 35.721 12.028 35.172 9.688 35.188 C8.722 35.202 7.756 35.216 6.762 35.23 C3.912 34.993 2.358 34.588 0 33 C-1.23 31.414 -1.23 31.414 -2.188 29.625 C-2.52 29.004 -2.853 28.382 -3.195 27.742 C-4.064 25.862 -4.499 24.004 -5 22 C-5.416 21.613 -5.833 21.227 -6.262 20.828 C-8.765 18.196 -10.454 15.131 -12.25 12 C-12.626 11.371 -13.003 10.742 -13.391 10.094 C-14.343 8.441 -15.18 6.723 -16 5 C-15.67 4.01 -15.34 3.02 -15 2 C-14.001 1.939 -13.002 1.879 -11.973 1.816 C-10.682 1.733 -9.392 1.649 -8.062 1.562 C-6.775 1.481 -5.487 1.4 -4.16 1.316 C-1 1 -1 1 0 0 Z " fill="#254E53" transform="translate(16,36)"/>
<path d="M0 0 C-1.207 3.103 -2.506 6.012 -4 9 C5.57 9 15.14 9 25 9 C25 9.33 25 9.66 25 10 C15.76 10.33 6.52 10.66 -3 11 C-6 18 -6 18 -6 22 C-7.98 22 -9.96 22 -12 22 C-13.32 24.64 -14.64 27.28 -16 30 C-15.34 30.33 -14.68 30.66 -14 31 C-14.33 31.66 -14.66 32.32 -15 33 C-18.602 31.799 -19.411 30.31 -21.125 27.016 C-22.606 23.604 -23.516 20.678 -23 17 C-21.39 13.381 -19.495 10.082 -17 7 C-16.34 7 -15.68 7 -15 7 C-14.918 6.051 -14.835 5.103 -14.75 4.125 C-14 1 -14 1 -12.438 -0.375 C-8.412 -1.407 -3.795 -1.897 0 0 Z " fill="#2A4D53" transform="translate(30,2)"/>
<path d="M0 0 C0 1.32 0 2.64 0 4 C0.99 4.33 1.98 4.66 3 5 C3 8.3 3 11.6 3 15 C2.01 15 1.02 15 0 15 C0 16.98 0 18.96 0 21 C0.99 21.33 1.98 21.66 3 22 C4 23 4 23 4.125 26 C4 29 4 29 3 30 C1.074 29.949 1.074 29.949 -1.312 29.688 C-1.702 29.648 -1.702 29.648 -3.676 29.449 C-6.082 28.984 -7.871 28.193 -10 27 C-10.66 27.66 -11.32 28.32 -12 29 C-11.988 27.88 -11.977 26.76 -11.965 25.605 C-11.955 24.133 -11.946 22.66 -11.938 21.188 C-11.929 20.45 -11.921 19.712 -11.912 18.951 C-11.897 15.701 -11.965 13.106 -13 10 C-12.813 7.138 -12.233 4.595 -11 2 C-7.334 0.045 -4.111 -0.242 0 0 Z M-10 2 C-9 4 -9 4 -9 4 Z M-10 15 C-10 18.3 -10 21.6 -10 25 C-9.67 25 -9.34 25 -9 25 C-9 21.7 -9 18.4 -9 15 C-9.33 15 -9.66 15 -10 15 Z M-2 15 C-2 16.65 -2 18.3 -2 20 C-1.67 20 -1.34 20 -1 20 C-1 18.35 -1 16.7 -1 15 C-1.33 15 -1.66 15 -2 15 Z " fill="#151615" transform="translate(307,21)"/>
<path d="M0 0 C0.99 0.33 1.98 0.66 3 1 C3.33 2.65 3.66 4.3 4 6 C4.66 6 5.32 6 6 6 C6 6.99 6 7.98 6 9 C7.65 8.67 9.3 8.34 11 8 C10.959 9.196 10.918 10.392 10.875 11.625 C10.861 15.423 11.58 18.45 13 22 C13.66 22 14.32 22 15 22 C14.67 22.99 14.34 23.98 14 25 C12.188 25.625 12.188 25.625 10 26 C9.258 26.186 8.515 26.371 7.75 26.562 C7.461 26.635 7.461 26.635 6 27 C6 26.01 6 25.02 6 24 C4.02 24 2.04 24 0 24 C-0.125 21.625 -0.125 21.625 0 19 C0.66 18.34 1.32 17.68 2 17 C1.34 17 0.68 17 0 17 C0 15.68 0 14.36 0 13 C-0.66 13 -1.32 13 -2 13 C-2 12.01 -2 11.02 -2 10 C-2.66 10 -3.32 10 -4 10 C-3.435 6.042 -2.191 3.334 0 0 Z " fill="#0B0D0D" transform="translate(18,23)"/>
<path d="M0 0 C4.95 0.33 9.9 0.66 15 1 C15 3.31 15 5.62 15 8 C14.353 8.184 13.706 8.369 13.039 8.559 C12.366 9.034 11.693 9.51 11 10 C10.461 13.223 10.461 13.223 10.375 17.062 C10.314 19.378 10.204 21.693 10 24 C8 25 8 25 1 25 C0.67 16.75 0.34 8.5 0 0 Z " fill="#212221" transform="translate(221,26)"/>
<path d="M0 0 C2.31 0 4.62 0 7 0 C7 7.92 7 15.84 7 24 C4.69 24 2.38 24 0 24 C0 16.08 0 8.16 0 0 Z " fill="#1E1F1E" transform="translate(237,27)"/>
<path d="M0 0 C2.31 0 4.62 0 7 0 C7 7.92 7 15.84 7 24 C4.69 24 2.38 24 0 24 C0 16.08 0 8.16 0 0 Z " fill="#171818" transform="translate(147,27)"/>
<path d="M0 0 C2.454 2.454 2.801 4.226 3.727 7.559 C4.036 8.667 4.345 9.774 4.664 10.916 C4.981 12.078 5.298 13.24 5.625 14.438 C5.95 15.596 6.275 16.754 6.609 17.947 C9 26.591 9 26.591 9 30 C11.31 30 13.62 30 16 30 C16.103 29.051 16.206 28.102 16.312 27.125 C17.009 22.341 18.018 17.421 20 13 C20.99 12.67 21.98 12.34 23 12 C23.533 13.746 24.051 15.497 24.562 17.25 C24.853 18.225 25.143 19.199 25.441 20.203 C25.992 22.962 25.938 24.391 25 27 C24.34 27 23.68 27 23 27 C22.34 26.01 21.68 25.02 21 24 C20.732 25.134 20.464 26.269 20.188 27.438 C19.796 28.613 19.404 29.789 19 31 C15.42 32.193 12.757 32.335 9 32 C7.25 30.188 7.25 30.188 6 28 C5.483 27.567 4.966 27.134 4.434 26.688 C2.453 24.357 2.695 22.821 2.812 19.812 C2.84 18.911 2.867 18.01 2.895 17.082 C2.929 16.395 2.964 15.708 3 15 C2.366 14.724 1.732 14.448 1.078 14.164 C-1.695 12.61 -2.066 10.957 -3 8 C-2.01 7.67 -1.02 7.34 0 7 C0 4.69 0 2.38 0 0 Z M1 7 C2 10 2 10 2 10 Z M2 11 C3 13 3 13 3 13 Z M21 14 C22 17 22 17 22 17 Z M20 17 C21 20 21 20 21 20 Z M22 17 C23 20 23 20 23 20 Z M4 18 C5 21 5 21 5 21 Z M23 20 C24 24 24 24 24 24 Z M5 21 C6 24 6 24 6 24 Z M19 21 C20 24 20 24 20 24 Z " fill="#4A4E4D" transform="translate(179,19)"/>
<path d="M0 0 C2.31 0 4.62 0 7 0 C7 0.33 7 0.66 7 1 C5.02 1 3.04 1 1 1 C1.33 1.66 1.66 2.32 2 3 C2.085 5.105 2.107 7.213 2.098 9.32 C2.094 10.577 2.091 11.834 2.088 13.129 C2.08 14.448 2.071 15.766 2.062 17.125 C2.057 18.465 2.053 19.805 2.049 21.145 C2.037 24.43 2.021 27.715 2 31 C3.32 31 4.64 31 6 31 C6 26.71 6 22.42 6 18 C6.66 18.66 7.32 19.32 8 20 C7.977 23.039 7.977 23.039 7.625 26.625 C7.514 27.814 7.403 29.002 7.289 30.227 C7.241 30.684 7.241 30.684 7 33 C4.69 33 2.38 33 0 33 C0 22.11 0 11.22 0 0 Z " fill="#4E4F4E" transform="translate(123,18)"/>
<path d="M0 0 C3.42 3.42 3.95 8.291 5.188 12.875 C5.473 13.882 5.759 14.889 6.053 15.926 C6.318 16.896 6.583 17.867 6.855 18.867 C7.099 19.755 7.343 20.643 7.594 21.558 C8.014 24.086 7.818 25.598 7 28 C6.34 28 5.68 28 5 28 C2.791 24.686 2.775 23.655 2.875 19.812 C2.893 18.911 2.911 18.01 2.93 17.082 C2.953 16.395 2.976 15.708 3 15 C2.366 14.724 1.732 14.448 1.078 14.164 C-1.695 12.61 -2.066 10.957 -3 8 C-2.01 7.67 -1.02 7.34 0 7 C0 4.69 0 2.38 0 0 Z M1 7 C2 10 2 10 2 10 Z M2 11 C3 13 3 13 3 13 Z M4 18 C5 21 5 21 5 21 Z M5 21 C6 24 6 24 6 24 Z " fill="#363737" transform="translate(179,19)"/>
<path d="M0 0 C0.66 1.65 1.32 3.3 2 5 C-1.284 7.488 -2.612 8.032 -6.812 7.688 C-7.338 7.574 -7.338 7.574 -10 7 C-10.165 6.175 -10.165 6.175 -11 2 C-7.366 -0.326 -4.229 -0.163 0 0 Z " fill="#202121" transform="translate(245,18)"/>
<path d="M0 0 C7.429 -0.286 7.429 -0.286 11 2 C10.67 3.65 10.34 5.3 10 7 C8.515 7.165 8.515 7.165 1 8 C0.403 5.237 0 2.84 0 0 Z " fill="#1D1E1D" transform="translate(146,18)"/>
<path d="M0 0 C0.99 0.99 1.98 1.98 3 3 C4.32 2.34 5.64 1.68 7 1 C5.848 3.468 4.952 5.048 3 7 C2.586 9.383 2.586 9.383 2.375 12.125 C2.3 13.035 2.225 13.945 2.148 14.883 C2.099 15.581 2.05 16.28 2 17 C2.66 17.33 3.32 17.66 4 18 C3 20 3 20 0 23 C0 15.41 0 7.82 0 0 Z " fill="#585959" transform="translate(245,27)"/>
<path d="M0 0 C0.66 0 1.32 0 2 0 C2 0.99 2 1.98 2 3 C2.66 3.33 3.32 3.66 4 4 C3 6 3 6 1 9 C0.34 9 -0.32 9 -1 9 C-1.165 8.175 -1.165 8.175 -2 4 C-3.958 3.973 -5.917 3.954 -7.875 3.938 C-8.42 3.932 -8.42 3.932 -11.18 3.902 C-14 4 -14 4 -16 5 C-15.67 4.01 -15.34 3.02 -15 2 C-14.001 1.939 -13.002 1.879 -11.973 1.816 C-10.682 1.733 -9.392 1.649 -8.062 1.562 C-6.775 1.481 -5.487 1.4 -4.16 1.316 C-1 1 -1 1 0 0 Z " fill="#5E7576" transform="translate(16,36)"/>
<path d="M0 0 C0.66 0.33 1.32 0.66 2 1 C1.34 1.639 0.68 2.279 0 2.938 C-2.682 7.045 -2.374 10.234 -2 15 C-2.99 15 -3.98 15 -5 15 C-5.33 11.37 -5.66 7.74 -6 4 C-5.196 3.526 -4.391 3.051 -3.562 2.562 C-1 1 -1 1 0 0 Z M-5 5 C-4 7 -4 7 -4 7 Z " fill="#3B3D3C" transform="translate(103,19)"/>
<path d="M0 0 C0.33 0 0.66 0 1 0 C1 10.56 1 21.12 1 32 C0.67 32 0.34 32 0 32 C0 21.44 0 10.88 0 0 Z " fill="#030303" transform="translate(155,27)"/>
<path d="M0 0 C10.56 0 21.12 0 32 0 C32 0.33 32 0.66 32 1 C21.44 1 10.88 1 0 1 C0 0.67 0 0.34 0 0 Z " fill="#000000" transform="translate(29,0)"/>
<path d="M0 0 C0.99 0.165 0.99 0.165 6 1 C6.043 3 6.041 5 6 7 C5.67 7.33 5.34 7.66 5 8 C3.475 7.911 1.953 7.755 0.438 7.562 C0.024 7.512 0.024 7.512 -2.066 7.254 C-2.704 7.17 -3.343 7.086 -4 7 C-4 6.67 -4 6.34 -4 6 C-1.36 6 1.28 6 4 6 C4 4.68 4 3.36 4 2 C2.68 2 1.36 2 0 2 C0 1.34 0 0.68 0 0 Z " fill="#595958" transform="translate(305,43)"/>
<path d="M0 0 C0 1.98 0 3.96 0 6 C-0.33 6 -0.66 6 -1 6 C-1.33 10.95 -1.66 15.9 -2 21 C-2.33 21 -2.66 21 -3 21 C-3 15.06 -3 9.12 -3 3 C-3.66 3 -4.32 3 -5 3 C-3.821 0.643 -2.793 0 0 0 Z " fill="#202120" transform="translate(146,27)"/>
<path d="M0 0 C2.353 2.353 2.394 3.274 2.75 6.5 C2.848 7.294 2.946 8.088 3.047 8.906 C3 11 3 11 1 13 C0.34 13 -0.32 13 -1 13 C-1.66 11.35 -2.32 9.7 -3 8 C-2.01 7.67 -1.02 7.34 0 7 C0 4.69 0 2.38 0 0 Z M1 7 C2 10 2 10 2 10 Z " fill="#484848" transform="translate(179,19)"/>
<path d="M0 0 C2.31 0.33 4.62 0.66 7 1 C7 1.66 7 2.32 7 3 C7.66 3.33 8.32 3.66 9 4 C8.67 4.66 8.34 5.32 8 6 C6.02 6 4.04 6 2 6 C2 5.34 2 4.68 2 4 C1.34 4 0.68 4 0 4 C0 2.68 0 1.36 0 0 Z " fill="#485D5E" transform="translate(17,46)"/>
<path d="M0 0 C0.99 0.99 1.98 1.98 3 3 C4.32 2.34 5.64 1.68 7 1 C5.607 4.367 4.021 5.986 1 8 C0 7 0 7 -0.062 3.438 C-0.042 2.303 -0.021 1.169 0 0 Z " fill="#3D3D3D" transform="translate(245,27)"/>
<path d="M0 0 C0.66 0.33 1.32 0.66 2 1 C1.67 3.31 1.34 5.62 1 8 C-0.32 7.67 -1.64 7.34 -3 7 C-1.125 1.125 -1.125 1.125 0 0 Z " fill="#2E3632" transform="translate(63,44)"/>
<path d="M0 0 C-0.812 1.938 -0.812 1.938 -2 4 C-2.99 4.33 -3.98 4.66 -5 5 C-5.165 4.175 -5.165 4.175 -6 0 C-3.509 -1.245 -2.589 -0.777 0 0 Z " fill="#2A2F2A" transform="translate(61,55)"/>
<path d="M0 0 C0.825 0.165 0.825 0.165 5 1 C4.67 1.99 4.34 2.98 4 4 C4.33 4.66 4.66 5.32 5 6 C3.35 5.67 1.7 5.34 0 5 C0 3.35 0 1.7 0 0 Z " fill="#353535" transform="translate(113,26)"/>
<path d="M0 0 C3.63 0 7.26 0 11 0 C11 0.33 11 0.66 11 1 C7.37 1 3.74 1 0 1 C0 0.67 0 0.34 0 0 Z " fill="#6F868E" transform="translate(2,36)"/>
<path d="M0 0 C0.33 0.165 0.33 0.165 2 1 C1.67 3.31 1.34 5.62 1 8 C0.67 8 0.34 8 0 8 C0 5.36 0 2.72 0 0 Z " fill="#040404" transform="translate(165,51)"/>
<path d="M0 0 C2.97 0 5.94 0 9 0 C9 0.33 9 0.66 9 1 C6.03 1 3.06 1 0 1 C0 0.67 0 0.34 0 0 Z " fill="#5B5B5B" transform="translate(105,52)"/>
<path d="M0 0 C0.33 0 0.66 0 1 0 C1 1.98 1 3.96 1 6 C1.66 6.33 2.32 6.66 3 7 C2.01 7 1.02 7 0 7 C0 4.69 0 2.38 0 0 Z " fill="#BCBCBC" transform="translate(281,19)"/>
<path d="M0 0 C2.64 0 5.28 0 8 0 C8 0.33 8 0.66 8 1 C5.36 1 2.72 1 0 1 C0 0.67 0 0.34 0 0 Z " fill="#000000" transform="translate(179,17)"/>
<path d="M0 0 C2.31 0 4.62 0 7 0 C7 0.33 7 0.66 7 1 C4.69 1 2.38 1 0 1 C0 0.67 0 0.34 0 0 Z " fill="#3F3F3F" transform="translate(157,60)"/>
<path d="M0 0 C2.31 0 4.62 0 7 0 C7 0.33 7 0.66 7 1 C4.69 1 2.38 1 0 1 C0 0.67 0 0.34 0 0 Z " fill="#000000" transform="translate(188,52)"/>
<path d="M0 0 C2.31 0 4.62 0 7 0 C7 0.33 7 0.66 7 1 C4.69 1 2.38 1 0 1 C0 0.67 0 0.34 0 0 Z " fill="#515151" transform="translate(157,25)"/>
<path d="M0 0 C2.31 0 4.62 0 7 0 C7 0.33 7 0.66 7 1 C4.69 1 2.38 1 0 1 C0 0.67 0 0.34 0 0 Z " fill="#000000" transform="translate(215,17)"/>
<path d="M0 0 C2.31 0 4.62 0 7 0 C7 0.33 7 0.66 7 1 C4.69 1 2.38 1 0 1 C0 0.67 0 0.34 0 0 Z " fill="#000000" transform="translate(197,17)"/>
<path d="M0 0 C2.31 0 4.62 0 7 0 C7 0.33 7 0.66 7 1 C4.69 1 2.38 1 0 1 C0 0.67 0 0.34 0 0 Z " fill="#696969" transform="translate(106,16)"/>
<path d="M0 0 C1.98 0 3.96 0 6 0 C6 0.33 6 0.66 6 1 C4.02 1 2.04 1 0 1 C0 0.67 0 0.34 0 0 Z " fill="#232323" transform="translate(255,61)"/>
<path d="M0 0 C1.98 0 3.96 0 6 0 C6 0.33 6 0.66 6 1 C4.02 1 2.04 1 0 1 C0 0.67 0 0.34 0 0 Z " fill="#545454" transform="translate(304,52)"/>
<path d="M0 0 C1.98 0 3.96 0 6 0 C6 0.33 6 0.66 6 1 C4.02 1 2.04 1 0 1 C0 0.67 0 0.34 0 0 Z " fill="#000000" transform="translate(207,52)"/>
<path d="M0 0 C1.98 0 3.96 0 6 0 C6 0.33 6 0.66 6 1 C4.02 1 2.04 1 0 1 C0 0.67 0 0.34 0 0 Z " fill="#464646" transform="translate(167,52)"/>
<path d="M0 0 C0.33 0 0.66 0 1 0 C1 1.98 1 3.96 1 6 C0.67 6 0.34 6 0 6 C0 4.02 0 2.04 0 0 Z " fill="#000000" transform="translate(311,28)"/>
<path d="M0 0 C1.98 0 3.96 0 6 0 C6 0.33 6 0.66 6 1 C4.02 1 2.04 1 0 1 C0 0.67 0 0.34 0 0 Z " fill="#D4D4D4" transform="translate(273,16)"/>
<path d="M0 0 C1.98 0 3.96 0 6 0 C6 0.33 6 0.66 6 1 C4.02 1 2.04 1 0 1 C0 0.67 0 0.34 0 0 Z " fill="#D4D4D4" transform="translate(124,16)"/>
<path d="M0 0 C1.65 0 3.3 0 5 0 C5 0.33 5 0.66 5 1 C3.35 1 1.7 1 0 1 C0 0.67 0 0.34 0 0 Z " fill="#000000" transform="translate(288,52)"/>
<path d="M0 0 C1.65 0 3.3 0 5 0 C5 0.33 5 0.66 5 1 C3.35 1 1.7 1 0 1 C0 0.67 0 0.34 0 0 Z " fill="#000000" transform="translate(273,52)"/>
<path d="M0 0 C1.65 0 3.3 0 5 0 C5 0.33 5 0.66 5 1 C3.35 1 1.7 1 0 1 C0 0.67 0 0.34 0 0 Z " fill="#000000" transform="translate(238,52)"/>
<path d="M0 0 C1.65 0 3.3 0 5 0 C5 0.33 5 0.66 5 1 C3.35 1 1.7 1 0 1 C0 0.67 0 0.34 0 0 Z " fill="#000000" transform="translate(223,52)"/>
<path d="M0 0 C1.65 0 3.3 0 5 0 C5 0.33 5 0.66 5 1 C3.35 1 1.7 1 0 1 C0 0.67 0 0.34 0 0 Z " fill="#000000" transform="translate(148,52)"/>
<path d="M0 0 C1.65 0 3.3 0 5 0 C5 0.33 5 0.66 5 1 C3.35 1 1.7 1 0 1 C0 0.67 0 0.34 0 0 Z " fill="#000000" transform="translate(139,52)"/>
<path d="M0 0 C1.65 0 3.3 0 5 0 C5 0.33 5 0.66 5 1 C3.35 1 1.7 1 0 1 C0 0.67 0 0.34 0 0 Z " fill="#000000" transform="translate(124,52)"/>
<path d="M0 0 C1.65 0 3.3 0 5 0 C5 0.33 5 0.66 5 1 C3.35 1 1.7 1 0 1 C0 0.67 0 0.34 0 0 Z " fill="#2E2E2E" transform="translate(167,42)"/>
<path d="M0 0 C0.66 0.33 0.66 0.33 4 2 C2.68 1.67 1.36 1.34 0 1 C0 0.67 0 0.34 0 0 Z " fill="#222222" transform="translate(101,36)"/>
<path d="M0 0 C1.65 0 3.3 0 5 0 C5 0.33 5 0.66 5 1 C3.35 1 1.7 1 0 1 C0 0.67 0 0.34 0 0 Z " fill="#191919" transform="translate(238,16)"/>
<path d="M0 0 C1.65 0 3.3 0 5 0 C5 0.33 5 0.66 5 1 C3.35 1 1.7 1 0 1 C0 0.67 0 0.34 0 0 Z " fill="#000000" transform="translate(148,16)"/>
<path d="M0 0 C4 1 4 1 4 1 Z " fill="#000000" transform="translate(232,35)"/>
<path d="M0 0 C1 4 1 4 1 4 Z " fill="#3F3F3F" transform="translate(96,26)"/>
<path d="M0 0 C1 4 1 4 1 4 Z " fill="#151515" transform="translate(211,23)"/>
<path d="M0 0 C4 1 4 1 4 1 Z " fill="#4F4F4F" transform="translate(252,25)"/>
<path d="M0 0 C4 1 4 1 4 1 Z " fill="#1F1F1F" transform="translate(231,25)"/>
<path d="M0 0 C4 1 4 1 4 1 Z " fill="#151515" transform="translate(171,25)"/>
<path d="M0 0 C1 4 1 4 1 4 Z " fill="#151515" transform="translate(178,22)"/>
<path d="M0 0 C1 4 1 4 1 4 Z " fill="#1F1F1F" transform="translate(212,19)"/>
<path d="M0 0 C3 1 3 1 3 1 Z " fill="#156A6A" transform="translate(261,60)"/>
<path d="M0 0 C3 1 3 1 3 1 Z " fill="#1C1C1C" transform="translate(252,60)"/>
<path d="M0 0 C3 1 3 1 3 1 Z " fill="#000000" transform="translate(301,51)"/>
<path d="M0 0 C3 1 3 1 3 1 Z " fill="#000000" transform="translate(114,51)"/>
<path d="" fill="#2A3F2A" transform="translate(0,0)"/>
<path d="" fill="#2A2A2A" transform="translate(0,0)"/>
<path d="M0 0 C3 1 3 1 3 1 Z " fill="#000000" transform="translate(256,42)"/>
<path d="M0 0 C3 1 3 1 3 1 Z " fill="#000000" transform="translate(109,42)"/>
<path d="M0 0 C3 1 3 1 3 1 Z " fill="#1C1C1C" transform="translate(108,39)"/>
<path d="" fill="#3F3F3F" transform="translate(0,0)"/>
<path d="M0 0 C3 1 3 1 3 1 Z " fill="#000000" transform="translate(282,34)"/>
<path d="M0 0 C3 1 3 1 3 1 Z " fill="#1C1C1C" transform="translate(110,29)"/>
<path d="" fill="#2A2A2A" transform="translate(0,0)"/>
<path d="" fill="#3F3F3F" transform="translate(0,0)"/>
<path d="M0 0 C3 1 3 1 3 1 Z " fill="#000000" transform="translate(108,26)"/>
<path d="M0 0 C3 1 3 1 3 1 Z " fill="#1C1C1C" transform="translate(286,25)"/>
<path d="M0 0 C3 1 3 1 3 1 Z " fill="#2A2A2A" transform="translate(258,25)"/>
<path d="M0 0 C3 1 3 1 3 1 Z " fill="#2A2A2A" transform="translate(166,25)"/>
<path d="M0 0 C3 1 3 1 3 1 Z " fill="#2A2A2A" transform="translate(137,25)"/>
<path d="M0 0 C3 1 3 1 3 1 Z " fill="#2A2A2A" transform="translate(299,20)"/>
<path d="" fill="#2A2A2A" transform="translate(0,0)"/>
<path d="" fill="#3F3F3F" transform="translate(0,0)"/>
<path d="M0 0 C3 1 3 1 3 1 Z " fill="#383838" transform="translate(302,19)"/>
<path d="M0 0 C0.66 0 1.32 0 2 0 C1.67 0.66 1.34 1.32 1 2 C0.67 1.34 0.34 0.68 0 0 Z " fill="#000000" transform="translate(154,18)"/>
<path d="M0 0 C3 1 3 1 3 1 Z " fill="#000000" transform="translate(113,17)"/>
<path d="M0 0 C3 1 3 1 3 1 Z " fill="#000000" transform="translate(103,17)"/>
<path d="" fill="#2A5555" transform="translate(0,0)"/>
<path d="" fill="#2A2A2A" transform="translate(0,0)"/>
<path d="" fill="#000000" transform="translate(0,0)"/>
<path d="M0 0 C2 1 2 1 2 1 Z " fill="#000000" transform="translate(174,51)"/>
<path d="M0 0 C2 1 2 1 2 1 Z " fill="#3F3F3F" transform="translate(103,51)"/>
<path d="M0 0 C2 1 2 1 2 1 Z " fill="#000000" transform="translate(101,50)"/>
<path d="M0 0 C2 1 2 1 2 1 Z " fill="#3F3F3F" transform="translate(106,41)"/>
<path d="M0 0 C2 1 2 1 2 1 Z " fill="#000000" transform="translate(100,38)"/>
<path d="" fill="#000000" transform="translate(0,0)"/>
<path d="" fill="#000000" transform="translate(0,0)"/>
<path d="M0 0 C2 1 2 1 2 1 Z " fill="#151515" transform="translate(166,35)"/>
<path d="M0 0 C2 1 2 1 2 1 Z " fill="#000000" transform="translate(67,35)"/>
<path d="" fill="#000000" transform="translate(0,0)"/>
<path d="" fill="#2A2A2A" transform="translate(0,0)"/>
<path d="M0 0 C2 1 2 1 2 1 Z " fill="#003F00" transform="translate(118,28)"/>
<path d="M0 0 C2 1 2 1 2 1 Z " fill="#000000" transform="translate(75,28)"/>
<path d="M0 0 C2 1 2 1 2 1 Z " fill="#121212" transform="translate(111,27)"/>
<path d="M0 0 C2 1 2 1 2 1 Z " fill="#000000" transform="translate(289,26)"/>
<path d="M0 0 C2 1 2 1 2 1 Z " fill="#000000" transform="translate(261,26)"/>
<path d="M0 0 C2 1 2 1 2 1 Z " fill="#000000" transform="translate(250,26)"/>
<path d="M0 0 C2 1 2 1 2 1 Z " fill="#000000" transform="translate(164,26)"/>
<path d="M0 0 C2 1 2 1 2 1 Z " fill="#000000" transform="translate(140,26)"/>
<path d="" fill="#2A2A2A" transform="translate(0,0)"/>
<path d="" fill="#000000" transform="translate(0,0)"/>
<path d="" fill="#2A5555" transform="translate(0,0)"/>
<path d="" fill="#000000" transform="translate(0,0)"/>
<path d="" fill="#2A2A2A" transform="translate(0,0)"/>
<path d="" fill="#2A5555" transform="translate(0,0)"/>
<path d="" fill="#000000" transform="translate(0,0)"/>
<path d="" fill="#000000" transform="translate(0,0)"/>
<path d="" fill="#000000" transform="translate(0,0)"/>
<path d="" fill="#000000" transform="translate(0,0)"/>
<path d="" fill="#000000" transform="translate(0,0)"/>
<path d="" fill="#000000" transform="translate(0,0)"/>
<path d="" fill="#000000" transform="translate(0,0)"/>
<path d="" fill="#000000" transform="translate(0,0)"/>
<path d="" fill="#000000" transform="translate(0,0)"/>
<path d="" fill="#000000" transform="translate(0,0)"/>
<path d="" fill="#000000" transform="translate(0,0)"/>
<path d="" fill="#000000" transform="translate(0,0)"/>
<path d="" fill="#000000" transform="translate(0,0)"/>
<path d="" fill="#000000" transform="translate(0,0)"/>
<path d="" fill="#000000" transform="translate(0,0)"/>
<path d="" fill="#555555" transform="translate(0,0)"/>
<path d="" fill="#000000" transform="translate(0,0)"/>
<path d="" fill="#000000" transform="translate(0,0)"/>
<path d="" fill="#7F7F7F" transform="translate(0,0)"/>
<path d="" fill="#242424" transform="translate(0,0)"/>
<path d="" fill="#000000" transform="translate(0,0)"/>
<path d="" fill="#000000" transform="translate(0,0)"/>
<path d="" fill="#007F7F" transform="translate(0,0)"/>
<path d="" fill="#000000" transform="translate(0,0)"/>
<path d="" fill="#000000" transform="translate(0,0)"/>
<path d="" fill="#000000" transform="translate(0,0)"/>
<path d="" fill="#000000" transform="translate(0,0)"/>
<path d="" fill="#000000" transform="translate(0,0)"/>
<path d="" fill="#000000" transform="translate(0,0)"/>
<path d="" fill="#7F7F7F" transform="translate(0,0)"/>
<path d="" fill="#000000" transform="translate(0,0)"/>
<path d="" fill="#000000" transform="translate(0,0)"/>
<path d="" fill="#555555" transform="translate(0,0)"/>
<path d="" fill="#7F7F7F" transform="translate(0,0)"/>
<path d="" fill="#000000" transform="translate(0,0)"/>
<path d="" fill="#555555" transform="translate(0,0)"/>
<path d="" fill="#000000" transform="translate(0,0)"/>
<path d="" fill="#000000" transform="translate(0,0)"/>
<path d="" fill="#000000" transform="translate(0,0)"/>
<path d="" fill="#000000" transform="translate(0,0)"/>
<path d="" fill="#555555" transform="translate(0,0)"/>
<path d="" fill="#7F7F7F" transform="translate(0,0)"/>
<path d="" fill="#7F7F7F" transform="translate(0,0)"/>
<path d="" fill="#000000" transform="translate(0,0)"/>
<path d="" fill="#000000" transform="translate(0,0)"/>
<path d="" fill="#555555" transform="translate(0,0)"/>
<path d="" fill="#000000" transform="translate(0,0)"/>
<path d="" fill="#000000" transform="translate(0,0)"/>
<path d="" fill="#000000" transform="translate(0,0)"/>
<path d="" fill="#000000" transform="translate(0,0)"/>
<path d="" fill="#000000" transform="translate(0,0)"/>
<path d="" fill="#000000" transform="translate(0,0)"/>
<path d="" fill="#000000" transform="translate(0,0)"/>
<path d="" fill="#000000" transform="translate(0,0)"/>
<path d="" fill="#000000" transform="translate(0,0)"/>
<path d="" fill="#000000" transform="translate(0,0)"/>
<path d="" fill="#555555" transform="translate(0,0)"/>
<path d="" fill="#000000" transform="translate(0,0)"/>
<path d="" fill="#000000" transform="translate(0,0)"/>
<path d="" fill="#000000" transform="translate(0,0)"/>
<path d="" fill="#000000" transform="translate(0,0)"/>
<path d="" fill="#000000" transform="translate(0,0)"/>
<path d="" fill="#000000" transform="translate(0,0)"/>
<path d="" fill="#000000" transform="translate(0,0)"/>
<path d="" fill="#000000" transform="translate(0,0)"/>
<path d="" fill="#000000" transform="translate(0,0)"/>
<path d="" fill="#000000" transform="translate(0,0)"/>
<path d="" fill="#000000" transform="translate(0,0)"/>
<path d="" fill="#000000" transform="translate(0,0)"/>
<path d="" fill="#00007F" transform="translate(0,0)"/>
</svg>
