<?xml version="1.0" encoding="UTF-8"?>
<!-- Generator: visioncortex VTracer 0.6.12 -->
<svg version="1.1" xmlns="http://www.w3.org/2000/svg" width="156" height="36">
<path d="M0 0 C2.64 0 5.28 0 8 0 C7.627 0.592 7.255 1.183 6.871 1.793 C6.398 2.583 5.925 3.373 5.438 4.188 C4.962 4.965 4.486 5.742 3.996 6.543 C2.415 10.443 3.715 13.145 5 17 C5.99 17.66 6.98 18.32 8 19 C5.36 19 2.72 19 0 19 C0 12.73 0 6.46 0 0 Z " fill="#000000" transform="translate(0,0)"/>
<path d="M0 0 C41.58 0 83.16 0 126 0 C126 4.29 126 8.58 126 13 C125.01 12.67 124.02 12.34 123 12 C123.33 11.67 123.66 11.34 124 11 C121.237 11.523 118.674 12.109 116 13 C112.812 12.062 112.812 12.062 110 11 C110 10.34 110 9.68 110 9 C108.68 9 107.36 9 106 9 C106 14.94 106 20.88 106 27 C105.67 27 105.34 27 105 27 C105 22.38 105 17.76 105 13 C103.68 13.33 102.36 13.66 101 14 C97.312 13.187 97.312 13.187 94 12 C93.835 11.67 93.835 11.67 93 10 C90.678 9.593 88.343 9.256 86 9 C85.67 9.99 85.34 10.98 85 12 C83.68 11.67 82.36 11.34 81 11 C81 10.34 81 9.68 81 9 C79.68 9 78.36 9 77 9 C76.67 9.66 76.34 10.32 76 11 C73.333 10.333 70.667 9.667 68 9 C67.67 9.99 67.34 10.98 67 12 C66.835 11.67 66.835 11.67 66 10 C65.34 10.99 64.68 11.98 64 13 C64 11.68 64 10.36 64 9 C62.35 9 60.7 9 59 9 C58.67 9.66 58.34 10.32 58 11 C54.173 12.157 52.421 12.175 48.688 10.625 C46 9 46 9 45 8 C43 8.25 43 8.25 41 9 C40.67 9.99 40.34 10.98 40 12 C38.68 12 37.36 12 36 12 C35.835 11.505 35.835 11.505 35 9 C33.68 9 32.36 9 31 9 C30.67 9.99 30.34 10.98 30 12 C29.34 10.68 28.68 9.36 28 8 C24.441 7.676 22.582 7.612 19.562 9.625 C18 12 18 12 18.125 15.125 C19 18 19 18 21 20 C20.34 20.33 20.34 20.33 17 22 C19.062 24.562 19.062 24.562 22 27 C25.435 26.884 27.925 26.537 31 25 C33.125 25.438 33.125 25.438 35 26 C35 24.02 35 22.04 35 20 C35.33 20 35.66 20 36 20 C36 21.65 36 23.3 36 25 C36.66 25 37.32 25 38 25 C38 23.35 38 21.7 38 20 C38.33 20 38.66 20 39 20 C39 21.98 39 23.96 39 26 C41.31 26 43.62 26 46 26 C46.33 22.04 46.66 18.08 47 14 C47.33 14 47.66 14 48 14 C48 19.28 48 24.56 48 30 C49.32 30 50.64 30 52 30 C52.165 29.505 52.165 29.505 53 27 C54.32 27 55.64 27 57 27 C59.688 26.188 59.688 26.188 62 25 C62.165 24.505 62.165 24.505 63 22 C63.165 22.495 63.165 22.495 64 25 C66.063 25.688 66.063 25.688 68 26 C68.33 25.34 68.66 24.68 69 24 C69.66 24.33 70.32 24.66 71 25 C71.165 24.505 71.165 24.505 72 22 C72.165 22.495 72.165 22.495 73 25 C75.063 25.688 75.063 25.688 77 26 C77.33 25.34 77.66 24.68 78 24 C78.66 24.33 79.32 24.66 80 25 C79.897 24.381 79.897 24.381 79.375 21.25 C78.731 17.386 79.069 16.863 81 13 C81 17.29 81 21.58 81 26 C82.32 26 83.64 26 85 26 C84.969 25.536 84.969 25.536 84.812 23.188 C85 20 85 20 88 17 C88 19.97 88 22.94 88 26 C88.66 26.165 88.66 26.165 92 27 C92.619 27.681 93.237 28.361 93.875 29.062 C96 31 96 31 99.25 31.25 C100.157 31.168 101.065 31.085 102 31 C102 30.34 102 29.68 102 29 C104.652 27.925 107.284 26.905 110 26 C110 23.69 110 21.38 110 19 C110.99 19 111.98 19 113 19 C113 21.31 113 23.62 113 26 C114.32 26 115.64 26 117 26 C117 23.69 117 21.38 117 19 C117.66 19 118.32 19 119 19 C119 20.98 119 22.96 119 25 C122 26 122 26 126 26 C126 29.3 126 32.6 126 36 C85.74 36 45.48 36 4 36 C5.88 31.3 8.097 27.595 10.855 23.402 C12 21 12 21 11.676 18.691 C11.564 18.412 11.564 18.412 11 17 C10.34 17 9.68 17 9 17 C9 16.34 9 15.68 9 15 C7.68 15.33 6.36 15.66 5 16 C5.33 15.34 5.66 14.68 6 14 C6.99 14 7.98 14 9 14 C7.02 10.37 5.04 6.74 3 3 C2.34 3 1.68 3 1 3 C0.67 2.01 0.34 1.02 0 0 Z M31 7 C35 8 35 8 35 8 Z M59 7 C63 8 63 8 63 8 Z M68 7 C72 8 72 8 72 8 Z M77 7 C81 8 81 8 81 8 Z M106 7 C110 8 110 8 110 8 Z M104 9 C104 9.66 104 10.32 104 11 C101.36 11 98.72 11 96 11 C96 11.33 96 11.66 96 12 C98.97 12 101.94 12 105 12 C104.67 11.01 104.34 10.02 104 9 Z M73 27 C77 28 77 28 77 28 Z M48 31 C52 32 52 32 52 32 Z " fill="#000000" transform="translate(30,0)"/>
<path d="M0 0 C4.5 5.625 4.5 5.625 6.25 9.312 C6.585 10.01 6.92 10.707 7.266 11.426 C7.508 11.945 7.75 12.465 8 13 C5.36 13 2.72 13 0 13 C0 8.71 0 4.42 0 0 Z " fill="#000000" transform="translate(0,23)"/>
<path d="M0 0 C0.99 0.66 1.98 1.32 3 2 C3 2.66 3 3.32 3 4 C3.99 4.33 4.98 4.66 6 5 C3.03 5 0.06 5 -3 5 C-2.01 3.35 -1.02 1.7 0 0 Z " fill="#000000" transform="translate(20,31)"/>
</svg>
