<?xml version="1.0" encoding="UTF-8"?>
<!-- Generator: visioncortex VTracer 0.6.12 -->
<svg version="1.1" xmlns="http://www.w3.org/2000/svg" width="314" height="72">
<path d="M0 0 C0.472 -0.002 0.472 -0.002 2.859 -0.01 C4.861 -0.015 6.862 -0.017 8.864 -0.017 C11.926 -0.02 14.987 -0.038 18.049 -0.057 C19.991 -0.06 21.933 -0.062 23.875 -0.062 C24.792 -0.07 25.709 -0.077 26.653 -0.084 C27.511 -0.081 28.368 -0.078 29.251 -0.075 C30.003 -0.076 30.755 -0.078 31.53 -0.079 C34.88 0.314 37.01 1.386 39.116 4.012 C40.583 6.427 42.03 8.85 43.449 11.293 C43.707 11.708 43.707 11.708 45.01 13.809 C48.328 19.477 49.202 22.745 47.637 29.168 C48.379 29.044 49.122 28.92 49.887 28.793 C52.637 29.168 52.637 29.168 54.949 31.793 C56.785 35.465 56.992 37.139 56.637 41.168 C55.507 43.758 55.507 43.758 53.934 46.32 C53.365 47.262 52.797 48.204 52.211 49.174 C51.609 50.141 51.007 51.109 50.387 52.105 C49.215 54.031 48.043 55.957 46.871 57.883 C46.593 58.335 46.593 58.335 45.186 60.625 C43.27 63.771 41.441 66.957 39.637 70.168 C28.598 71.735 28.598 71.735 23.637 70.168 C19.623 66.849 17.602 61.875 15.637 57.168 C13.627 58.901 12.634 60.174 11.594 62.648 C10.264 65.793 9.111 67.792 6.637 70.168 C1.236 71.801 -4.006 72.256 -9.363 70.168 C-12.75 66.961 -14.511 63.414 -16.405 59.184 C-17.444 56.999 -18.625 54.957 -19.871 52.883 C-20.296 52.171 -20.721 51.46 -21.158 50.727 C-21.991 49.334 -22.824 47.942 -23.66 46.551 C-26.453 41.662 -26.453 41.662 -25.963 38.953 C-25.765 38.364 -25.567 37.775 -25.363 37.168 C-21.03 37.168 -16.697 37.168 -12.363 37.168 C-12.929 36.192 -13.495 35.216 -14.078 34.211 C-14.819 32.926 -15.56 31.641 -16.301 30.355 C-16.674 29.713 -17.047 29.07 -17.432 28.408 C-18.998 25.685 -20.367 23.157 -21.363 20.168 C-20.483 18.099 -20.483 18.099 -19.09 15.754 C-18.595 14.911 -18.1 14.068 -17.59 13.199 C-17.061 12.323 -16.533 11.446 -15.988 10.543 C-15.467 9.659 -14.947 8.774 -14.41 7.863 C-9.985 0.389 -8.817 0.011 0 0 Z M-10.363 3.168 C-9.363 5.168 -9.363 5.168 -9.363 5.168 Z M-1.363 10.168 C-1.033 10.828 -0.703 11.488 -0.363 12.168 C8.877 11.838 18.117 11.508 27.637 11.168 C27.637 10.838 27.637 10.508 27.637 10.168 C18.067 10.168 8.497 10.168 -1.363 10.168 Z M-0.363 12.168 C-0.693 13.158 -1.023 14.148 -1.363 15.168 C-0.373 15.168 0.617 15.168 1.637 15.168 C9.97 15.168 18.303 15.168 26.637 15.168 C26.637 14.178 26.637 13.188 26.637 12.168 C17.727 12.168 8.817 12.168 -0.363 12.168 Z M29.637 14.168 C30.637 16.168 30.637 16.168 30.637 16.168 Z M-2.363 18.168 C-1.363 20.168 -1.363 20.168 -1.363 20.168 Z M-3.363 20.168 C-2.363 22.168 -2.363 22.168 -2.363 22.168 Z M11.637 25.168 C12.297 25.828 12.957 26.488 13.637 27.168 C16.762 26.793 16.762 26.793 19.637 26.168 C19.637 25.838 19.637 25.508 19.637 25.168 C16.997 25.168 14.357 25.168 11.637 25.168 Z M35.637 25.168 C35.637 26.488 35.637 27.808 35.637 29.168 C36.297 28.838 36.957 28.508 37.637 28.168 C37.307 27.178 36.977 26.188 36.637 25.168 C36.307 25.168 35.977 25.168 35.637 25.168 Z M15.637 27.168 C15.324 29.855 15.324 29.855 15.637 33.168 C17.949 35.793 17.949 35.793 20.637 38.168 C21.665 39.48 22.678 40.805 23.637 42.168 C24.297 39.528 24.957 36.888 25.637 34.168 C24.647 33.838 23.657 33.508 22.637 33.168 C20.949 30.105 20.949 30.105 19.637 27.168 C18.317 27.168 16.997 27.168 15.637 27.168 Z M45.637 29.168 C46.637 31.168 46.637 31.168 46.637 31.168 Z M37.637 31.168 C38.637 33.168 38.637 33.168 38.637 33.168 Z M39.637 32.168 C39.637 36.168 39.637 36.168 41.637 39.168 C42.627 37.188 43.617 35.208 44.637 33.168 C42.987 32.838 41.337 32.508 39.637 32.168 Z M38.637 37.168 C39.637 39.168 39.637 39.168 39.637 39.168 Z M-9.363 38.168 C-8.363 40.168 -8.363 40.168 -8.363 40.168 Z M20.637 40.168 C21.637 42.168 21.637 42.168 21.637 42.168 Z M37.637 40.168 C37.637 41.488 37.637 42.808 37.637 44.168 C38.297 43.838 38.957 43.508 39.637 43.168 C39.307 42.178 38.977 41.188 38.637 40.168 C38.307 40.168 37.977 40.168 37.637 40.168 Z M-11.363 41.168 C-10.363 43.168 -10.363 43.168 -10.363 43.168 Z M3.637 45.168 C4.637 47.168 4.637 47.168 4.637 47.168 Z M32.637 48.168 C33.637 50.168 33.637 50.168 33.637 50.168 Z M-3.363 49.168 C-3.693 49.828 -4.023 50.488 -4.363 51.168 C-3.426 53.293 -3.426 53.293 -2.363 55.168 C-1.703 55.168 -1.043 55.168 -0.363 55.168 C0.297 53.518 0.957 51.868 1.637 50.168 C-0.013 49.838 -1.663 49.508 -3.363 49.168 Z M16.637 54.168 C17.637 57.168 17.637 57.168 17.637 57.168 Z M7.637 63.168 C8.637 65.168 8.637 65.168 8.637 65.168 Z " fill="#0D0D0D" transform="translate(26.36328125,0.83203125)"/>
<path d="M0 0 C2.64 0 5.28 0 8 0 C8.99 3.63 9.98 7.26 11 11 C11.66 11 12.32 11 13 11 C14.557 8.664 15.785 6.507 17 4 C17.667 2.667 18.333 1.333 19 0 C20.98 0 22.96 0 25 0 C25.716 1.953 26.432 3.906 27.148 5.859 C27.983 7.956 28.991 9.981 30 12 C30.99 9.03 31.98 6.06 33 3 C33.66 3 34.32 3 35 3 C35.33 2.01 35.66 1.02 36 0 C38.64 0 41.28 0 44 0 C44.165 0.99 44.165 0.99 45 6 C44.34 6 43.68 6 43 6 C42.02 11.688 41.881 17.173 41.938 22.938 C41.942 23.812 41.947 24.687 41.951 25.588 C41.963 27.725 41.981 29.863 42 32 C41.67 32 41.34 32 41 32 C40.835 30.02 40.835 30.02 40 20 C37.892 24.216 37.823 26.398 38 31 C37.34 31 36.68 31 36 31 C35.67 31.66 35.34 32.32 35 33 C31.7 32.67 28.4 32.34 25 32 C24.856 31.258 24.711 30.515 24.562 29.75 C24.098 27.48 23.581 25.242 23 23 C22.01 23 21.02 23 20 23 C20 25.31 20 27.62 20 30 C19.34 30 18.68 30 18 30 C17.67 30.66 17.34 31.32 17 32 C14.351 32.594 11.708 32.742 9 33 C8.01 30.03 7.02 27.06 6 24 C1.528 26.236 1.528 26.236 -0.625 29.062 C-3 32 -3 32 -5 33 C-6.54 33.07 -8.083 33.085 -9.625 33.062 C-10.034 33.058 -10.034 33.058 -12.102 33.035 C-12.728 33.024 -13.355 33.012 -14 33 C-14.33 35.64 -14.66 38.28 -15 41 C-17.31 41 -19.62 41 -22 41 C-22 30.44 -22 19.88 -22 9 C-19.36 9 -16.72 9 -14 9 C-13.505 8.887 -13.505 8.887 -11 8.312 C-6.691 7.864 -3.956 9.295 0 11 C0 7.37 0 3.74 0 0 Z M1 7 C2 10 2 10 2 10 Z M33 7 C34 10 34 10 34 10 Z M2 10 C3 13 3 13 3 13 Z M32 11 C33 14 33 14 33 14 Z M14 12 C15 15 15 15 15 15 Z M3 14 C2.835 14.66 2.835 14.66 2 18 C2.66 17.67 3.32 17.34 4 17 C3.67 16.01 3.34 15.02 3 14 Z M12 14 C12.33 15.65 12.66 17.3 13 19 C13.33 18.01 13.66 17.02 14 16 C13.34 15.34 12.68 14.68 12 14 Z M31 14 C30.67 15.65 30.34 17.3 30 19 C30.66 18.67 31.32 18.34 32 18 C31.67 16.68 31.34 15.36 31 14 Z M40 14 C41 17 41 17 41 17 Z M-12 15 C-12.33 15.495 -12.33 15.495 -14 18 C-13.125 21.188 -13.125 21.188 -12 24 C-10.35 24 -8.7 24 -7 24 C-7.021 23.051 -7.041 22.102 -7.062 21.125 C-7 18 -7 18 -6 16 C-6.99 15.835 -6.99 15.835 -12 15 Z M21 16 C21.33 17.32 21.66 18.64 22 20 C22.33 19.01 22.66 18.02 23 17 C22.34 16.67 21.68 16.34 21 16 Z M4 17 C3.67 18.98 3.34 20.96 3 23 C3.66 22.01 4.32 21.02 5 20 C4.67 19.01 4.34 18.02 4 17 Z M-6 19 C-5 22 -5 22 -5 22 Z M-12 25 C-12 25.33 -12 25.66 -12 26 C-10.35 26 -8.7 26 -7 26 C-7 25.67 -7 25.34 -7 25 C-8.65 25 -10.3 25 -12 25 Z " fill="#131313" transform="translate(180,18)"/>
<path d="M0 0 C2.31 0 4.62 0 7 0 C7.33 2.64 7.66 5.28 8 8 C8.603 8.026 9.207 8.052 9.828 8.078 C16.437 8.547 16.437 8.547 19.562 11.062 C20.037 11.702 20.511 12.341 21 13 C21.33 11.02 21.66 9.04 22 7 C22.66 7 23.32 7 24 7 C24 6.01 24 5.02 24 4 C27.63 3.67 31.26 3.34 35 3 C35 4.32 35 5.64 35 7 C35.99 7.33 36.98 7.66 38 8 C38 11.3 38 14.6 38 18 C37.01 18 36.02 18 35 18 C35 19.98 35 21.96 35 24 C35.99 24.33 36.98 24.66 38 25 C38.042 27.333 38.041 29.667 38 32 C37.67 32.33 37.34 32.66 37 33 C28.599 32.449 28.599 32.449 25 29 C24.34 29.99 23.68 30.98 23 32 C20.31 32.77 17.819 32.821 15 33 C14 32 14 32 13.902 30.152 C13.935 28.102 13.967 26.051 14 24 C13.67 26.64 13.34 29.28 13 32 C12.67 32 12.34 32 12 32 C12 27.05 12 22.1 12 17 C11.01 17 10.02 17 9 17 C9 21.95 9 26.9 9 32 C7.515 32.165 7.515 32.165 0 33 C0 22.11 0 11.22 0 0 Z M25 5 C26 7 26 7 26 7 Z M9 15 C13 16 13 16 13 16 Z M22 16 C26 17 26 17 26 17 Z M33 18 C33 19.98 33 21.96 33 24 C33.33 24 33.66 24 34 24 C34 22.02 34 20.04 34 18 C33.67 18 33.34 18 33 18 Z " fill="#161616" transform="translate(275,18)"/>
<path d="M0 0 C1.389 0.023 2.777 0.043 4.166 0.059 C15.638 0.317 15.638 0.317 18.938 2.625 C21.205 5.476 22.93 8.662 24.75 11.812 C25.265 12.651 25.78 13.49 26.311 14.354 C28.664 18.39 29.964 20.742 29.82 25.496 C29.529 26.529 29.238 27.561 28.938 28.625 C28.628 29.904 28.319 31.183 28 32.5 C26.938 35.625 26.938 35.625 24.938 36.625 C24.938 35.965 24.938 35.305 24.938 34.625 C22.627 34.295 20.317 33.965 17.938 33.625 C17.278 31.975 16.617 30.325 15.938 28.625 C16.597 28.625 17.258 28.625 17.938 28.625 C17.773 28.295 17.773 28.295 16.938 26.625 C16.625 26.567 16.625 26.567 15.043 26.273 C12.938 25.625 12.938 25.625 11.488 23.664 C11.284 23.266 11.284 23.266 10.25 21.25 C9.834 20.459 9.417 19.667 8.988 18.852 C7.938 16.625 7.938 16.625 6.938 13.625 C-1.312 13.625 -9.562 13.625 -18.062 13.625 C-20.062 8.625 -20.062 8.625 -19.694 6.409 C-15.483 -1.726 -8.155 -0.345 0 0 Z M10.938 14.625 C11.938 16.625 11.938 16.625 11.938 16.625 Z " fill="#0B0D0C" transform="translate(45.0625,0.375)"/>
<path d="M0 0 C0.99 0.99 1.98 1.98 3 3 C3.469 2.509 3.938 2.018 4.422 1.512 C8.282 -0.752 11.868 -0.32 16.25 -0.188 C17.694 -0.157 17.694 -0.157 25 0 C25 9.57 25 19.14 25 29 C16.358 32.841 13.799 33.865 5.188 32.312 C2 31 2 31 0.562 28.375 C0.377 27.591 0.191 26.808 0 26 C3.583 24.308 5.247 23.896 9 25 C11.333 25.039 13.667 25.045 16 25 C16 24.34 16 23.68 16 23 C15.704 23.017 15.704 23.017 14.207 23.105 C9.24 23.276 6.093 23.169 2 20 C1.34 20.99 0.68 21.98 0 23 C0 15.41 0 7.82 0 0 Z M15 7 C12.375 7.938 12.375 7.938 10 9 C10.021 9.784 10.041 10.567 10.062 11.375 C10 14 10 14 9 16 C11.312 16.688 11.312 16.688 14 17 C15.812 15.938 15.812 15.938 17 14 C17.188 10.812 17.188 10.812 17 8 C16.34 7.67 15.68 7.34 15 7 Z M8 10 C9 13 9 13 9 13 Z " fill="#0F0F0F" transform="translate(247,27)"/>
<path d="M0 0 C2.399 1.1 3.959 2.281 6 4 C6.66 3.01 7.32 2.02 8 1 C8 11.23 8 21.46 8 32 C7.01 31.34 6.02 30.68 5 30 C4.68 30.248 4.68 30.248 3.062 31.5 C-1.571 33.77 -6.064 33.83 -11.031 32.426 C-14.187 31.162 -17.01 29.81 -19 27 C-19 26.01 -19 25.02 -19 24 C-15.262 21.508 -13.523 21 -9 21 C-9 21.99 -9 22.98 -9 24 C-6.69 24.33 -4.38 24.66 -2 25 C-1.67 24.01 -1.34 23.02 -1 22 C-1.748 21.746 -2.495 21.492 -3.266 21.23 C-4.25 20.886 -5.235 20.542 -6.25 20.188 C-7.225 19.851 -8.199 19.515 -9.203 19.168 C-11.873 18.053 -13.764 16.806 -16 15 C-16.66 14.67 -17.32 14.34 -18 14 C-18.195 7.945 -18.195 7.945 -18 6 C-12.473 0.473 -7.69 -1.294 0 0 Z M-17 6 C-17 8.31 -17 10.62 -17 13 C-16.67 13 -16.34 13 -16 13 C-16 10.69 -16 8.38 -16 6 C-16.33 6 -16.66 6 -17 6 Z M-7 7 C-3 8 -3 8 -3 8 Z M5 8 C4.01 8.66 3.02 9.32 2 10 C-0.191 9.906 -0.191 9.906 -2.562 9.5 C-4.941 9.094 -4.941 9.094 -7 9 C-7.66 9.66 -8.32 10.32 -9 11 C-4.05 12.98 0.9 14.96 6 17 C7 16 7 16 7.062 12.438 C7.042 11.303 7.021 10.169 7 9 C6.34 8.67 5.68 8.34 5 8 Z " fill="#0F0F0F" transform="translate(115,18)"/>
<path d="M0 0 C0.672 0.16 1.343 0.32 2.035 0.484 C4.438 1.451 5.46 2.092 6.938 4.25 C7.734 9.625 8.372 16.333 5.906 21.348 C2.975 24.141 -0.089 24.502 -3.938 24.562 C-5.314 24.483 -6.69 24.387 -8.062 24.25 C-8.393 26.89 -8.722 29.53 -9.062 32.25 C-11.373 32.25 -13.683 32.25 -16.062 32.25 C-16.062 21.69 -16.062 11.13 -16.062 0.25 C-13.423 0.25 -10.782 0.25 -8.062 0.25 C-4.941 -0.51 -3.159 -0.803 0 0 Z M-6.062 6.25 C-6.393 6.745 -6.393 6.745 -8.062 9.25 C-7.188 12.438 -7.188 12.438 -6.062 15.25 C-4.412 15.25 -2.762 15.25 -1.062 15.25 C-1.083 14.301 -1.104 13.352 -1.125 12.375 C-1.062 9.25 -1.062 9.25 -0.062 7.25 C-1.053 7.085 -1.053 7.085 -6.062 6.25 Z M-0.062 10.25 C0.938 13.25 0.938 13.25 0.938 13.25 Z M-6.062 16.25 C-6.062 16.58 -6.062 16.91 -6.062 17.25 C-4.412 17.25 -2.762 17.25 -1.062 17.25 C-1.062 16.92 -1.062 16.59 -1.062 16.25 C-2.713 16.25 -4.363 16.25 -6.062 16.25 Z " fill="#0B0C0B" transform="translate(174.0625,26.75)"/>
<path d="M0 0 C1.729 -0.027 3.458 -0.047 5.188 -0.062 C6.15 -0.074 7.113 -0.086 8.105 -0.098 C10.883 -0.004 13.325 0.245 16 1 C16.33 1.66 16.66 2.32 17 3 C17.99 3.33 18.98 3.66 20 4 C19.897 4.392 19.897 4.392 19.375 6.375 C19.251 7.241 19.128 8.108 19 9 C19.66 9.66 20.32 10.32 21 11 C21.33 11.99 21.66 12.98 22 14 C22.474 14.701 22.949 15.403 23.438 16.125 C25.182 19.335 25.771 22.145 26.375 25.719 C27.134 28.489 28.445 30.6 30 33 C25.127 33.801 20.846 34.074 16 33 C12.71 29.796 10.924 26.152 8.99 22.016 C7.923 19.844 6.73 17.79 5.484 15.715 C4.635 14.289 3.786 12.863 2.938 11.438 C2.53 10.759 2.123 10.081 1.704 9.383 C-1.09 4.495 -1.09 4.495 -0.599 1.785 C-0.402 1.196 -0.204 0.607 0 0 Z M14 4 C15 6 15 6 15 6 Z " fill="#2F565A" transform="translate(1,38)"/>
<path d="M0 0 C7 0 7 0 9 1 C9 2.98 9 4.96 9 7 C11.522 7.841 13.977 8.52 16.562 9.125 C17.348 9.313 18.133 9.501 18.941 9.695 C21 10 21 10 23 9 C22.67 16.92 22.34 24.84 22 33 C20.845 32.835 20.845 32.835 15 32 C14.67 27.71 14.34 23.42 14 19 C13.175 18.67 13.175 18.67 9 17 C9 21.95 9 26.9 9 32 C3 33 3 33 0 32 C0 21.44 0 10.88 0 0 Z M21 13 C22 15 22 15 22 15 Z M9 15 C13 16 13 16 13 16 Z " fill="#0F0F0F" transform="translate(124,18)"/>
<path d="M0 0 C0.597 0.006 0.597 0.006 3.621 0.035 C4.22 0.04 4.22 0.04 7.25 0.062 C8.177 0.074 9.104 0.086 10.059 0.098 C8.934 3.07 7.836 5.432 6.059 8.098 C6.059 9.067 6.059 10.036 6.059 11.035 C6.059 14.157 5.644 15.486 4.059 18.098 C3.729 18.758 3.399 19.418 3.059 20.098 C2.67 20.236 2.67 20.236 0.703 20.934 C-2.512 22.349 -3.435 23.761 -5.254 26.723 C-5.51 27.131 -5.51 27.131 -6.805 29.199 C-7.18 29.826 -7.555 30.452 -7.941 31.098 C-10.887 28.355 -13.312 25.809 -14.941 22.098 C-13.521 17.37 -10.81 13.118 -8.379 8.848 C-7.967 8.115 -7.555 7.383 -7.131 6.629 C-3.445 0.114 -3.445 0.114 0 0 Z M-3.941 3.098 C-2.941 5.098 -2.941 5.098 -2.941 5.098 Z " fill="#325B60" transform="translate(19.94140625,0.90234375)"/>
<path d="M0 0 C0 1.32 0 2.64 0 4 C0.99 4.33 1.98 4.66 3 5 C3 8.3 3 11.6 3 15 C2.01 15 1.02 15 0 15 C0 16.98 0 18.96 0 21 C0.99 21.33 1.98 21.66 3 22 C3.042 24.333 3.041 26.667 3 29 C2.67 29.33 2.34 29.66 2 30 C-5.169 29.538 -5.169 29.538 -7.746 27.871 C-9.639 25.047 -9.287 22.663 -9.188 19.312 C-9.16 18.133 -9.133 16.954 -9.105 15.738 C-9.071 14.835 -9.036 13.931 -9 13 C-10.32 13 -11.64 13 -13 13 C-13 10.03 -13 7.06 -13 4 C-12.34 4 -11.68 4 -11 4 C-11 3.01 -11 2.02 -11 1 C-7.266 0.121 -3.832 -0.089 0 0 Z M-10 2 C-9 4 -9 4 -9 4 Z M-2 15 C-2 16.98 -2 18.96 -2 21 C-1.67 21 -1.34 21 -1 21 C-1 19.02 -1 17.04 -1 15 C-1.33 15 -1.66 15 -2 15 Z " fill="#0B0B0B" transform="translate(310,21)"/>
<path d="M0 0 C2.31 0.33 4.62 0.66 7 1 C7.33 1.66 7.66 2.32 8 3 C9.98 3 11.96 3 14 3 C14.33 5.31 14.66 7.62 15 10 C14.355 10.183 13.711 10.366 13.047 10.555 C11 12 11 12 10.391 15.258 C10.367 15.896 10.367 15.896 10.25 19.125 C10.193 20.406 10.137 21.688 10.078 23.008 C10.065 23.502 10.065 23.502 10 26 C5.971 27.036 4.349 26.87 0 26 C0 17.42 0 8.84 0 0 Z " fill="#1B1B1B" transform="translate(223,24)"/>
<path d="M0 0 C2.64 0 5.28 0 8 0 C8 7.92 8 15.84 8 24 C5.36 23.67 2.72 23.34 0 23 C0 15.41 0 7.82 0 0 Z " fill="#2B2B2B" transform="translate(238,27)"/>
<path d="M0 0 C2.31 0 4.62 0 7 0 C7 7.59 7 15.18 7 23 C4.69 23 2.38 23 0 23 C0 15.41 0 7.82 0 0 Z " fill="#0A0A0A" transform="translate(148,27)"/>
<path d="M0 0 C0 2.31 0 4.62 0 7 C-1.434 7.25 -2.873 7.474 -4.312 7.688 C-5.113 7.815 -5.914 7.943 -6.738 8.074 C-9 8 -9 8 -10.797 6.648 C-12 5 -12 5 -11.938 2.938 C-11 1 -11 1 -9.375 -0.312 C-6.054 -1.274 -3.354 -0.645 0 0 Z " fill="#212121" transform="translate(157,18)"/>
<path d="M0 0 C-1.074 2.915 -1.778 4.778 -4 7 C-10.577 6.423 -10.577 6.423 -12 5 C-12.041 3.334 -12.043 1.666 -12 0 C-7.447 -2.483 -4.775 -1.685 0 0 Z M-11 1 C-10 4 -10 4 -10 4 Z " fill="#181818" transform="translate(248,19)"/>
<path d="M0 0 C0.33 0 0.66 0 1 0 C1 10.89 1 21.78 1 33 C0.67 33 0.34 33 0 33 C0 22.11 0 11.22 0 0 Z " fill="#020202" transform="translate(273,19)"/>
<path d="M0 0 C0.33 0 0.66 0 1 0 C1 10.56 1 21.12 1 32 C0.67 32 0.34 32 0 32 C0 21.44 0 10.88 0 0 Z " fill="#000000" transform="translate(156,27)"/>
<path d="M0 0 C0.66 0 1.32 0 2 0 C2 0.99 2 1.98 2 3 C2.99 3.33 3.98 3.66 5 4 C5.33 5.98 5.66 7.96 6 10 C5.01 10 4.02 10 3 10 C-0.223 4.824 -0.223 4.824 -1 3 C-0.67 2.01 -0.34 1.02 0 0 Z " fill="#748B8D" transform="translate(13,60)"/>
<path d="M0 0 C0.99 0 1.98 0 3 0 C1.792 4.431 0.483 6.981 -3 10 C-4 7 -4 7 -3.223 5.176 C-2.148 3.451 -1.074 1.725 0 0 Z " fill="#000000" transform="translate(60,49)"/>
<path d="M0 0 C-0.99 0.66 -1.98 1.32 -3 2 C-3.188 4.625 -3.188 4.625 -3 7 C-4.938 6.25 -4.938 6.25 -7 5 C-7.75 2.875 -7.75 2.875 -8 1 C-3.375 -1.125 -3.375 -1.125 0 0 Z " fill="#1A1A1A" transform="translate(255,52)"/>
<path d="M0 0 C2.64 0 5.28 0 8 0 C5 2 5 2 2 2 C1.67 4.64 1.34 7.28 1 10 C-0.04 6.62 -0.08 3.522 0 0 Z " fill="#3E3E3D" transform="translate(180,18)"/>
<path d="M0 0 C0.33 0.165 0.33 0.165 2 1 C2 2.65 2 4.3 2 6 C2.99 6 3.98 6 5 6 C5 6.66 5 7.32 5 8 C3.35 7.67 1.7 7.34 0 7 C0 4.69 0 2.38 0 0 Z " fill="#767676" transform="translate(289,43)"/>
<path d="M0 0 C-1.049 2.622 -1.649 3.794 -4.125 5.25 C-4.744 5.497 -5.362 5.745 -6 6 C-6 5.01 -6 4.02 -6 3 C-2.667 0 -2.667 0 0 0 Z " fill="#272726" transform="translate(105,19)"/>
<path d="M0 0 C0.66 0.165 0.66 0.165 4 1 C3.34 2.65 2.68 4.3 2 6 C1.01 6 0.02 6 -1 6 C-0.67 4.02 -0.34 2.04 0 0 Z " fill="#000000" transform="translate(31,40)"/>
<path d="M0 0 C0.99 0 1.98 0 3 0 C3 4.95 3 9.9 3 15 C2.67 15 2.34 15 2 15 C2 10.38 2 5.76 2 1 C1.34 0.67 0.68 0.34 0 0 Z " fill="#000000" transform="translate(234,35)"/>
<path d="M0 0 C3.63 0 7.26 0 11 0 C11 0.33 11 0.66 11 1 C7.37 1 3.74 1 0 1 C0 0.67 0 0.34 0 0 Z " fill="#5C9A9A" transform="translate(1,36)"/>
<path d="M0 0 C3.3 0 6.6 0 10 0 C10 0.33 10 0.66 10 1 C6.7 1 3.4 1 0 1 C0 0.67 0 0.34 0 0 Z " fill="#000000" transform="translate(105,16)"/>
<path d="M0 0 C2.97 0 5.94 0 9 0 C9 0.33 9 0.66 9 1 C6.03 1 3.06 1 0 1 C0 0.67 0 0.34 0 0 Z " fill="#101010" transform="translate(106,52)"/>
<path d="M0 0 C0.33 0.165 0.33 0.165 2 1 C1.67 3.31 1.34 5.62 1 8 C0.67 8 0.34 8 0 8 C0 5.36 0 2.72 0 0 Z " fill="#000000" transform="translate(166,51)"/>
<path d="M0 0 C0.33 0 0.66 0 1 0 C1 1.98 1 3.96 1 6 C1.66 6.33 2.32 6.66 3 7 C2.01 7 1.02 7 0 7 C0 4.69 0 2.38 0 0 Z " fill="#000000" transform="translate(283,19)"/>
<path d="M0 0 C2.31 0 4.62 0 7 0 C7 0.33 7 0.66 7 1 C4.69 1 2.38 1 0 1 C0 0.67 0 0.34 0 0 Z " fill="#1E1E1E" transform="translate(256,61)"/>
<path d="M0 0 C2.31 0 4.62 0 7 0 C7 0.33 7 0.66 7 1 C4.69 1 2.38 1 0 1 C0 0.67 0 0.34 0 0 Z " fill="#000000" transform="translate(158,60)"/>
<path d="M0 0 C2.31 0 4.62 0 7 0 C7 0.33 7 0.66 7 1 C4.69 1 2.38 1 0 1 C0 0.67 0 0.34 0 0 Z " fill="#151515" transform="translate(168,52)"/>
<path d="M0 0 C2.31 0 4.62 0 7 0 C7 0.33 7 0.66 7 1 C4.69 1 2.38 1 0 1 C0 0.67 0 0.34 0 0 Z " fill="#0B0B0B" transform="translate(256,51)"/>
<path d="M0 0 C2.31 0 4.62 0 7 0 C7 0.33 7 0.66 7 1 C4.69 1 2.38 1 0 1 C0 0.67 0 0.34 0 0 Z " fill="#000000" transform="translate(148,51)"/>
<path d="M0 0 C0 0.99 0 1.98 0 3 C-0.99 3 -1.98 3 -3 3 C-2.01 2.01 -1.02 1.02 0 0 Z " fill="#000000" transform="translate(181,46)"/>
<path d="M0 0 C2.31 0 4.62 0 7 0 C7 0.33 7 0.66 7 1 C4.69 1 2.38 1 0 1 C0 0.67 0 0.34 0 0 Z " fill="#000000" transform="translate(265,25)"/>
<path d="M0 0 C2.31 0 4.62 0 7 0 C7 0.33 7 0.66 7 1 C4.69 1 2.38 1 0 1 C0 0.67 0 0.34 0 0 Z " fill="#000000" transform="translate(158,25)"/>
<path d="M0 0 C2.31 0 4.62 0 7 0 C7 0.33 7 0.66 7 1 C4.69 1 2.38 1 0 1 C0 0.67 0 0.34 0 0 Z " fill="#000000" transform="translate(216,16)"/>
<path d="M0 0 C2.31 0 4.62 0 7 0 C7 0.33 7 0.66 7 1 C4.69 1 2.38 1 0 1 C0 0.67 0 0.34 0 0 Z " fill="#000000" transform="translate(181,16)"/>
<path d="M0 0 C0.825 0.165 0.825 0.165 5 1 C4.67 1.165 4.67 1.165 3 2 C2.01 1.34 1.02 0.68 0 0 Z " fill="#0E0E0E" transform="translate(113,30)"/>
<path d="M0 0 C1.98 0 3.96 0 6 0 C6 0.33 6 0.66 6 1 C4.02 1 2.04 1 0 1 C0 0.67 0 0.34 0 0 Z " fill="#000000" transform="translate(275,16)"/>
<path d="M0 0 C1.98 0 3.96 0 6 0 C6 0.33 6 0.66 6 1 C4.02 1 2.04 1 0 1 C0 0.67 0 0.34 0 0 Z " fill="#000000" transform="translate(199,16)"/>
<path d="M0 0 C1.98 0 3.96 0 6 0 C6 0.33 6 0.66 6 1 C4.02 1 2.04 1 0 1 C0 0.67 0 0.34 0 0 Z " fill="#000000" transform="translate(124,16)"/>
<path d="M0 0 C1.65 0 3.3 0 5 0 C5 0.33 5 0.66 5 1 C3.35 1 1.7 1 0 1 C0 0.67 0 0.34 0 0 Z " fill="#323232" transform="translate(307,52)"/>
<path d="M0 0 C1.65 0 3.3 0 5 0 C5 0.33 5 0.66 5 1 C3.35 1 1.7 1 0 1 C0 0.67 0 0.34 0 0 Z " fill="#000000" transform="translate(108,42)"/>
<path d="M0 0 C4 1 4 1 4 1 Z " fill="#000000" transform="translate(290,52)"/>
<path d="M0 0 C4 1 4 1 4 1 Z " fill="#000000" transform="translate(189,52)"/>
<path d="M0 0 C4 1 4 1 4 1 Z " fill="#000000" transform="translate(193,51)"/>
<path d="M0 0 C4 1 4 1 4 1 Z " fill="#000000" transform="translate(139,51)"/>
<path d="M0 0 C1 4 1 4 1 4 Z " fill="#000000" transform="translate(185,42)"/>
<path d="M0 0 C1 4 1 4 1 4 Z " fill="#000000" transform="translate(203,41)"/>
<path d="M0 0 C1 4 1 4 1 4 Z " fill="#000000" transform="translate(219,38)"/>
<path d="M0 0 C0.495 0.33 0.495 0.33 3 2 C2.01 2 1.02 2 0 2 C0 1.34 0 0.68 0 0 Z " fill="#000000" transform="translate(102,36)"/>
<path d="M0 0 C4 1 4 1 4 1 Z " fill="#000000" transform="translate(168,34)"/>
<path d="M0 0 C0 3 0 3 0 3 Z " fill="#000000" transform="translate(295,27)"/>
<path d="M0 0 C1 4 1 4 1 4 Z " fill="#000000" transform="translate(209,26)"/>
<path d="M0 0 C1 4 1 4 1 4 Z " fill="#000000" transform="translate(191,25)"/>
<path d="M0 0 C4 1 4 1 4 1 Z " fill="#000000" transform="translate(288,25)"/>
<path d="M0 0 C4 1 4 1 4 1 Z " fill="#000000" transform="translate(260,25)"/>
<path d="M0 0 C1 4 1 4 1 4 Z " fill="#151515" transform="translate(207,19)"/>
<path d="M0 0 C1 4 1 4 1 4 Z " fill="#000000" transform="translate(190,21)"/>
<path d="M0 0 C4 1 4 1 4 1 Z " fill="#000000" transform="translate(304,19)"/>
<path d="M0 0 C3 1 3 1 3 1 Z " fill="#000000" transform="translate(263,60)"/>
<path d="M0 0 C3 1 3 1 3 1 Z " fill="#000000" transform="translate(253,60)"/>
<path d="M0 0 C3 1 3 1 3 1 Z " fill="#000000" transform="translate(242,52)"/>
<path d="M0 0 C3 1 3 1 3 1 Z " fill="#000000" transform="translate(239,51)"/>
<path d="M0 0 C3 1 3 1 3 1 Z " fill="#000000" transform="translate(224,51)"/>
<path d="M0 0 C3 1 3 1 3 1 Z " fill="#000000" transform="translate(103,51)"/>
<path d="M0 0 C0.33 0.165 0.33 0.165 2 1 C1.67 1.165 1.67 1.165 0 2 C0 1.34 0 0.68 0 0 Z " fill="#000000" transform="translate(251,49)"/>
<path d="M0 0 C0.66 0.66 1.32 1.32 2 2 C1.34 2 0.68 2 0 2 C0 1.34 0 0.68 0 0 Z " fill="#000000" transform="translate(300,47)"/>
<path d="" fill="#000000" transform="translate(0,0)"/>
<path d="" fill="#000000" transform="translate(0,0)"/>
<path d="M0 0 C3 1 3 1 3 1 Z " fill="#000000" transform="translate(258,42)"/>
<path d="" fill="#000000" transform="translate(0,0)"/>
<path d="M0 0 C0.66 0 1.32 0 2 0 C1.67 0.66 1.34 1.32 1 2 C0.67 1.34 0.34 0.68 0 0 Z " fill="#000000" transform="translate(112,40)"/>
<path d="M0 0 C3 1 3 1 3 1 Z " fill="#2A2A2A" transform="translate(109,39)"/>
<path d="M0 0 C3 1 3 1 3 1 Z " fill="#000000" transform="translate(110,29)"/>
<path d="M0 0 C3 1 3 1 3 1 Z " fill="#000000" transform="translate(254,25)"/>
<path d="M0 0 C3 1 3 1 3 1 Z " fill="#000000" transform="translate(233,25)"/>
<path d="M0 0 C3 1 3 1 3 1 Z " fill="#000000" transform="translate(173,25)"/>
<path d="M0 0 C3 1 3 1 3 1 Z " fill="#000000" transform="translate(166,25)"/>
<path d="M0 0 C3 1 3 1 3 1 Z " fill="#000000" transform="translate(138,25)"/>
<path d="" fill="#000000" transform="translate(0,0)"/>
<path d="" fill="#000000" transform="translate(0,0)"/>
<path d="" fill="#000000" transform="translate(0,0)"/>
<path d="" fill="#1C1C1C" transform="translate(0,0)"/>
<path d="M0 0 C3 1 3 1 3 1 Z " fill="#000000" transform="translate(301,20)"/>
<path d="" fill="#000000" transform="translate(0,0)"/>
<path d="M0 0 C3 1 3 1 3 1 Z " fill="#000000" transform="translate(150,15)"/>
<path d="M0 0 C2 1 2 1 2 1 Z " fill="#000000" transform="translate(266,59)"/>
<path d="" fill="#000000" transform="translate(0,0)"/>
<path d="M0 0 C2 1 2 1 2 1 Z " fill="#000000" transform="translate(275,52)"/>
<path d="M0 0 C2 1 2 1 2 1 Z " fill="#000000" transform="translate(228,52)"/>
<path d="M0 0 C2 1 2 1 2 1 Z " fill="#000000" transform="translate(213,52)"/>
<path d="M0 0 C2 1 2 1 2 1 Z " fill="#000000" transform="translate(143,52)"/>
<path d="M0 0 C2 1 2 1 2 1 Z " fill="#7F7F7F" transform="translate(125,52)"/>
<path d="M0 0 C2 1 2 1 2 1 Z " fill="#000000" transform="translate(24,52)"/>
<path d="M0 0 C2 1 2 1 2 1 Z " fill="#000000" transform="translate(304,51)"/>
<path d="M0 0 C2 1 2 1 2 1 Z " fill="#000000" transform="translate(294,51)"/>
<path d="M0 0 C2 1 2 1 2 1 Z " fill="#000000" transform="translate(279,51)"/>
<path d="M0 0 C2 1 2 1 2 1 Z " fill="#000000" transform="translate(249,51)"/>
<path d="M0 0 C2 1 2 1 2 1 Z " fill="#000000" transform="translate(210,51)"/>
<path d="M0 0 C2 1 2 1 2 1 Z " fill="#000000" transform="translate(207,51)"/>
<path d="M0 0 C2 1 2 1 2 1 Z " fill="#000000" transform="translate(175,51)"/>
<path d="M0 0 C2 1 2 1 2 1 Z " fill="#000000" transform="translate(115,51)"/>
<path d="M0 0 C2 1 2 1 2 1 Z " fill="#000000" transform="translate(117,50)"/>
<path d="" fill="#000000" transform="translate(0,0)"/>
<path d="M0 0 C2 1 2 1 2 1 Z " fill="#000000" transform="translate(100,49)"/>
<path d="" fill="#000000" transform="translate(0,0)"/>
<path d="" fill="#000000" transform="translate(0,0)"/>
<path d="M0 0 C2 1 2 1 2 1 Z " fill="#000000" transform="translate(261,41)"/>
<path d="M0 0 C2 1 2 1 2 1 Z " fill="#000000" transform="translate(106,41)"/>
<path d="" fill="#2A2A2A" transform="translate(0,0)"/>
<path d="M0 0 C2 1 2 1 2 1 Z " fill="#000000" transform="translate(106,38)"/>
<path d="" fill="#000000" transform="translate(0,0)"/>
<path d="M0 0 C2 1 2 1 2 1 Z " fill="#000000" transform="translate(67,35)"/>
<path d="" fill="#000000" transform="translate(0,0)"/>
<path d="M0 0 C2 1 2 1 2 1 Z " fill="#000000" transform="translate(118,32)"/>
<path d="M0 0 C2 1 2 1 2 1 Z " fill="#000000" transform="translate(118,28)"/>
<path d="M0 0 C2 1 2 1 2 1 Z " fill="#000000" transform="translate(108,28)"/>
<path d="M0 0 C2 1 2 1 2 1 Z " fill="#000000" transform="translate(75,28)"/>
<path d="" fill="#000000" transform="translate(0,0)"/>
<path d="M0 0 C2 1 2 1 2 1 Z " fill="#000000" transform="translate(252,26)"/>
<path d="M0 0 C2 1 2 1 2 1 Z " fill="#000000" transform="translate(231,26)"/>
<path d="M0 0 C2 1 2 1 2 1 Z " fill="#000000" transform="translate(176,26)"/>
<path d="M0 0 C2 1 2 1 2 1 Z " fill="#000000" transform="translate(141,26)"/>
<path d="M0 0 C2 1 2 1 2 1 Z " fill="#000000" transform="translate(170,24)"/>
<path d="" fill="#000000" transform="translate(0,0)"/>
<path d="" fill="#000000" transform="translate(0,0)"/>
<path d="" fill="#000000" transform="translate(0,0)"/>
<path d="" fill="#000000" transform="translate(0,0)"/>
<path d="M0 0 C2 1 2 1 2 1 Z " fill="#000000" transform="translate(115,17)"/>
<path d="M0 0 C2 1 2 1 2 1 Z " fill="#000000" transform="translate(103,17)"/>
<path d="M0 0 C2 1 2 1 2 1 Z " fill="#000000" transform="translate(239,16)"/>
<path d="M0 0 C2 1 2 1 2 1 Z " fill="#000000" transform="translate(153,16)"/>
<path d="M0 0 C2 1 2 1 2 1 Z " fill="#3F3F3F" transform="translate(241,15)"/>
<path d="" fill="#000000" transform="translate(0,0)"/>
<path d="" fill="#000000" transform="translate(0,0)"/>
<path d="" fill="#00FFFF" transform="translate(0,0)"/>
<path d="" fill="#000000" transform="translate(0,0)"/>
<path d="" fill="#7F7F7F" transform="translate(0,0)"/>
<path d="" fill="#000000" transform="translate(0,0)"/>
<path d="" fill="#000000" transform="translate(0,0)"/>
<path d="" fill="#000000" transform="translate(0,0)"/>
<path d="" fill="#000000" transform="translate(0,0)"/>
<path d="" fill="#000000" transform="translate(0,0)"/>
<path d="" fill="#000000" transform="translate(0,0)"/>
<path d="" fill="#000000" transform="translate(0,0)"/>
<path d="" fill="#000000" transform="translate(0,0)"/>
<path d="" fill="#000000" transform="translate(0,0)"/>
<path d="" fill="#000000" transform="translate(0,0)"/>
<path d="" fill="#000000" transform="translate(0,0)"/>
<path d="" fill="#000000" transform="translate(0,0)"/>
<path d="" fill="#000000" transform="translate(0,0)"/>
<path d="" fill="#000000" transform="translate(0,0)"/>
<path d="" fill="#000000" transform="translate(0,0)"/>
<path d="" fill="#000000" transform="translate(0,0)"/>
<path d="" fill="#000000" transform="translate(0,0)"/>
<path d="" fill="#000000" transform="translate(0,0)"/>
<path d="" fill="#000000" transform="translate(0,0)"/>
<path d="" fill="#000000" transform="translate(0,0)"/>
<path d="" fill="#000000" transform="translate(0,0)"/>
<path d="" fill="#000000" transform="translate(0,0)"/>
<path d="" fill="#2A2A2A" transform="translate(0,0)"/>
<path d="" fill="#000000" transform="translate(0,0)"/>
<path d="" fill="#000000" transform="translate(0,0)"/>
<path d="" fill="#000000" transform="translate(0,0)"/>
<path d="" fill="#000000" transform="translate(0,0)"/>
<path d="" fill="#000000" transform="translate(0,0)"/>
<path d="" fill="#000000" transform="translate(0,0)"/>
<path d="" fill="#000000" transform="translate(0,0)"/>
<path d="" fill="#000000" transform="translate(0,0)"/>
<path d="" fill="#000000" transform="translate(0,0)"/>
<path d="" fill="#000000" transform="translate(0,0)"/>
<path d="" fill="#000000" transform="translate(0,0)"/>
<path d="" fill="#000000" transform="translate(0,0)"/>
<path d="" fill="#000000" transform="translate(0,0)"/>
<path d="" fill="#000000" transform="translate(0,0)"/>
<path d="" fill="#000000" transform="translate(0,0)"/>
<path d="" fill="#000000" transform="translate(0,0)"/>
<path d="" fill="#000000" transform="translate(0,0)"/>
<path d="" fill="#000000" transform="translate(0,0)"/>
<path d="" fill="#000000" transform="translate(0,0)"/>
<path d="" fill="#000000" transform="translate(0,0)"/>
<path d="" fill="#000000" transform="translate(0,0)"/>
<path d="" fill="#000000" transform="translate(0,0)"/>
<path d="" fill="#000000" transform="translate(0,0)"/>
<path d="" fill="#000000" transform="translate(0,0)"/>
<path d="" fill="#000000" transform="translate(0,0)"/>
<path d="" fill="#000000" transform="translate(0,0)"/>
<path d="" fill="#000000" transform="translate(0,0)"/>
<path d="" fill="#000000" transform="translate(0,0)"/>
<path d="" fill="#000000" transform="translate(0,0)"/>
<path d="" fill="#000000" transform="translate(0,0)"/>
<path d="" fill="#000000" transform="translate(0,0)"/>
<path d="" fill="#000000" transform="translate(0,0)"/>
<path d="" fill="#000000" transform="translate(0,0)"/>
<path d="" fill="#000000" transform="translate(0,0)"/>
<path d="" fill="#000000" transform="translate(0,0)"/>
<path d="" fill="#000000" transform="translate(0,0)"/>
<path d="" fill="#000000" transform="translate(0,0)"/>
<path d="" fill="#000000" transform="translate(0,0)"/>
<path d="" fill="#000000" transform="translate(0,0)"/>
<path d="" fill="#000000" transform="translate(0,0)"/>
<path d="" fill="#000000" transform="translate(0,0)"/>
<path d="" fill="#000000" transform="translate(0,0)"/>
<path d="" fill="#000000" transform="translate(0,0)"/>
<path d="" fill="#000000" transform="translate(0,0)"/>
</svg>
